<svg width="40" height="40" viewBox="0 0 40 40" fill="none" xmlns="http://www.w3.org/2000/svg">
<path d="M25.2387 7.5H14.7625C10.9625 7.5 8.75 9.725 8.75 13.5375V26.45C8.75 30.325 10.9625 32.5 14.7625 32.5H25.2387C29.1 32.5 31.25 30.325 31.25 26.45V13.5375C31.25 9.725 29.1 7.5 25.2387 7.5" fill="#30CB65"/>
<path fill-rule="evenodd" clip-rule="evenodd" d="M15.0984 13.3125V13.325C14.5597 13.325 14.1234 13.7625 14.1234 14.3C14.1234 14.8375 14.5597 15.275 15.0984 15.275H18.8347C19.3734 15.275 19.8109 14.8375 19.8109 14.2863C19.8109 13.75 19.3734 13.3125 18.8347 13.3125H15.0984ZM24.8984 20.925H15.0984C14.5597 20.925 14.1234 20.4875 14.1234 19.95C14.1234 19.4125 14.5597 18.9738 15.0984 18.9738H24.8984C25.4359 18.9738 25.8734 19.4125 25.8734 19.95C25.8734 20.4875 25.4359 20.925 24.8984 20.925ZM24.8992 26.6375H15.0992C14.7242 26.6875 14.3617 26.5 14.1617 26.1875C13.9617 25.8625 13.9617 25.45 14.1617 25.1375C14.3617 24.8125 14.7242 24.6375 15.0992 24.675H24.8992C25.398 24.725 25.7742 25.15 25.7742 25.6625C25.7742 26.1613 25.398 26.5875 24.8992 26.6375Z" fill="white"/>
</svg>
