<svg width="40" height="40" viewBox="0 0 40 40" fill="none" xmlns="http://www.w3.org/2000/svg">
<path d="M32.5 19.9998C32.5 26.9048 26.9037 32.4998 20 32.4998C13.0963 32.4998 7.5 26.9048 7.5 19.9998C7.5 13.0973 13.0963 7.49976 20 7.49976C26.9037 7.49976 32.5 13.0973 32.5 19.9998" fill="#30CB65"/>
<path fill-rule="evenodd" clip-rule="evenodd" d="M21.0859 20.7884C21.0859 21.3909 20.5947 21.8822 19.9922 21.8822C19.3897 21.8822 18.8984 21.3909 18.8984 20.7884V15.2634C18.8984 14.6609 19.3897 14.1697 19.9922 14.1697C20.5947 14.1697 21.0859 14.6609 21.0859 15.2634V20.7884ZM18.9047 24.7544C18.9047 24.1519 19.3934 23.6607 19.9922 23.6607C20.6084 23.6607 21.0984 24.1519 21.0984 24.7544C21.0984 25.3569 20.6084 25.8482 20.0047 25.8482C19.3984 25.8482 18.9047 25.3569 18.9047 24.7544Z" fill="#00404F"/>
</svg>
