<svg width="40" height="40" viewBox="0 0 40 40" fill="none" xmlns="http://www.w3.org/2000/svg">
<path d="M26.8 12.7955L26.675 12.5208C26.3375 11.8091 25.95 10.985 25.7125 10.5105C25.1375 9.38679 24.15 8.76249 22.9375 8.75H17.05C15.8375 8.76249 14.8625 9.38679 14.2875 10.5105C14.0375 11.01 13.6125 11.909 13.2625 12.6457L13.1875 12.7955C13.15 12.8954 13.05 12.9453 12.95 12.9453C9.9375 12.9453 7.5 15.3926 7.5 18.3893V25.806C7.5 28.8027 9.9375 31.25 12.95 31.25H27.05C30.05 31.25 32.5 28.8027 32.5 25.806V18.3893C32.5 15.3926 30.05 12.9453 27.05 12.9453C26.9375 12.9453 26.85 12.8829 26.8 12.7955Z" fill="#30CB65"/>
<path fill-rule="evenodd" clip-rule="evenodd" d="M25.8862 17.5901C25.8862 18.2144 26.3862 18.7138 27.0112 18.7138C27.6362 18.7138 28.1487 18.2144 28.1487 17.5901C28.1487 16.9658 27.6362 16.4539 27.0112 16.4539C26.3862 16.4539 25.8862 16.9658 25.8862 17.5901ZM23.4612 25.1317C22.5737 26.0182 21.3487 26.5676 19.9987 26.5676C18.6862 26.5676 17.4612 26.0557 16.5237 25.1317C15.5987 24.1953 15.0862 22.9716 15.0862 21.6606C15.0737 20.362 15.5862 19.1384 16.5112 18.2019C17.4487 17.2655 18.6862 16.7535 19.9987 16.7535C21.3112 16.7535 22.5487 17.2655 23.4737 18.1894C24.3987 19.1259 24.9112 20.362 24.9112 21.6606C24.8987 23.0216 24.3487 24.2452 23.4612 25.1317ZM19.9987 18.6264C19.1862 18.6264 18.4237 18.9386 17.8362 19.5254C17.2612 20.0998 16.9487 20.8615 16.9612 21.6481V21.6606C16.9612 22.4722 17.2737 23.2338 17.8487 23.8082C18.4237 24.3825 19.1862 24.6947 19.9987 24.6947C21.6737 24.6947 23.0237 23.3337 23.0362 21.6606C23.0362 20.849 22.7237 20.0873 22.1487 19.513C21.5737 18.9386 20.8112 18.6264 19.9987 18.6264Z" fill="#00404F"/>
</svg>
