<svg width="1220" height="400" viewBox="0 0 1220 400" fill="none" xmlns="http://www.w3.org/2000/svg">
<mask id="mask0_53_23821" style="mask-type:alpha" maskUnits="userSpaceOnUse" x="0" y="0" width="1220" height="400">
<rect width="1220" height="400" fill="#00404F"/>
</mask>
<g mask="url(#mask0_53_23821)">
<path d="M798.244 553.109C967.833 505.965 1149.25 412.479 1226.84 244.93C1246.49 202.492 1254.56 153.938 1251.73 105.772M1251.73 105.772C1247.42 32.4117 1217.85 -40.0468 1165.45 -88.6197C1083.49 -164.612 968.564 -207.072 866.891 -146.19C813.895 -114.456 781.574 -63.4899 803.85 -1.36598C837.883 93.545 974.801 134.144 1064.67 132.9C1126.8 132.041 1189.85 122.634 1251.73 105.772ZM1830.53 -455.25C1813.27 -395.555 1787.53 -337.242 1754.9 -282.024C1640.27 -88.0011 1465.51 64.3217 1250.47 107.605" stroke="url(#paint0_linear_53_23821)" stroke-width="24" stroke-linecap="round"/>
<path d="M1056.68 928.486C881.595 879.815 694.299 783.301 614.2 610.327C593.911 566.515 585.586 516.388 588.506 466.663C652.389 484.071 717.475 493.783 781.622 494.67M-9.03998 -112.526C8.7786 -50.8974 35.3557 9.304 69.037 66.3098C187.386 266.615 367.805 423.87 589.804 468.555" stroke="url(#paint1_linear_53_23821)" stroke-width="24" stroke-linecap="round"/>
</g>
<defs>
<linearGradient id="paint0_linear_53_23821" x1="2006.15" y1="-365.691" x2="902.636" y2="330.739" gradientUnits="userSpaceOnUse">
<stop stop-color="#30CB65"/>
<stop offset="1" stop-color="#30CBB8"/>
</linearGradient>
<linearGradient id="paint1_linear_53_23821" x1="-190.346" y1="-20.0667" x2="948.903" y2="698.914" gradientUnits="userSpaceOnUse">
<stop stop-color="#30CB65"/>
<stop offset="1" stop-color="#30CBB8"/>
</linearGradient>
</defs>
</svg>
