<svg width="1330" height="635" viewBox="0 0 1330 635" fill="none" xmlns="http://www.w3.org/2000/svg">
<mask id="mask0_4683_12652" style="mask-type:alpha" maskUnits="userSpaceOnUse" x="0" y="0" width="1330" height="635">
<rect width="1330" height="635" fill="#00404F"/>
</mask>
<g mask="url(#mask0_4683_12652)">
<path d="M1232.99 1416.24C1168.78 1252.35 1057.26 1081.42 882.665 1021.35C838.442 1006.13 789.318 1003.06 741.693 1010.79M741.693 1010.79C669.156 1022.57 600.095 1059.39 557.124 1116.46C489.896 1205.76 459.391 1324.42 530.334 1419.34C567.313 1468.82 621.312 1495.77 680.837 1467.27C771.778 1423.73 798.187 1283.38 787.776 1194.11C780.578 1132.38 764.784 1070.63 741.693 1010.79ZM124.513 492.288C185.659 503.363 246.296 523.019 304.556 549.837C509.268 644.067 678.635 802.365 743.644 1011.86" stroke="url(#paint0_linear_4683_12652)" stroke-width="24" stroke-linecap="round"/>
<path d="M550.894 855.437C725.379 832.242 918.003 764.792 1018.05 609.608C1043.4 570.302 1058.11 523.333 1061.98 475.24M1061.98 475.24C1067.88 401.991 1048.63 326.133 1003.47 270.771C932.823 184.155 824.889 126.183 715.761 172.392C658.88 196.477 619.81 242.474 633.264 307.085C653.82 405.796 783.793 464.972 872.967 476.192C934.622 483.949 998.362 483.367 1061.98 475.24ZM1712.93 -0.182802C1687.56 56.5461 1653.99 110.73 1614.03 160.896C1473.62 337.165 1279.44 463.807 1060.48 476.881" stroke="url(#paint1_linear_4683_12652)" stroke-width="24" stroke-linecap="round"/>
</g>
<defs>
<linearGradient id="paint0_linear_4683_12652" x1="195.677" y1="308.443" x2="1001.12" y2="1335.1" gradientUnits="userSpaceOnUse">
<stop stop-color="#30CB65"/>
<stop offset="1" stop-color="#30CBB8"/>
</linearGradient>
<linearGradient id="paint1_linear_4683_12652" x1="1874.45" y1="112.844" x2="685.087" y2="649.673" gradientUnits="userSpaceOnUse">
<stop stop-color="#30CB65"/>
<stop offset="1" stop-color="#30CBB8"/>
</linearGradient>
</defs>
</svg>
