<svg width="40" height="40" viewBox="0 0 40 40" fill="none" xmlns="http://www.w3.org/2000/svg">
<path d="M20.026 7C12.473 7 7 13.162 7 20C7 22.184 7.637 24.433 8.755 26.487C8.963 26.825 8.989 27.254 8.846 27.657L7.975 30.569C7.78 31.271 8.378 31.791 9.041 31.583L11.667 30.803C12.382 30.569 12.941 30.868 13.6053 31.271C15.5033 32.389 17.868 32.961 20 32.961C26.448 32.961 33 27.982 33 19.961C33 13.045 27.41 7 20.026 7" fill="#30CB65"/>
<path fill-rule="evenodd" clip-rule="evenodd" d="M19.9726 21.6772C19.0496 21.6642 18.3086 20.9232 18.3086 20.0002C18.3086 19.0902 19.0626 18.3362 19.9726 18.3492C20.8956 18.3492 21.6366 19.0902 21.6366 20.0132C21.6366 20.9232 20.8956 21.6772 19.9726 21.6772ZM13.9804 21.6772C13.0704 21.6772 12.3164 20.9232 12.3164 20.0132C12.3164 19.0902 13.0574 18.3492 13.9804 18.3492C14.9034 18.3492 15.6444 19.0902 15.6444 20.0132C15.6444 20.9232 14.9034 21.6642 13.9804 21.6772ZM24.3008 20.0132C24.3008 20.9232 25.0418 21.6772 25.9648 21.6772C26.8878 21.6772 27.6288 20.9232 27.6288 20.0132C27.6288 19.0902 26.8878 18.3492 25.9648 18.3492C25.0418 18.3492 24.3008 19.0902 24.3008 20.0132Z" fill="white"/>
</svg>
