<svg width="40" height="40" viewBox="0 0 40 40" fill="none" xmlns="http://www.w3.org/2000/svg">
<path d="M30.5 24.9252C30.5 28.4127 27.7 31.2377 24.2125 31.2502H24.2H11.8125C8.3375 31.2502 5.5 28.4377 5.5 24.9502V24.9377C5.5 24.9377 5.5075 19.4052 5.5175 16.6227C5.51875 16.1002 6.11875 15.8077 6.5275 16.1327C9.4975 18.489 14.8088 22.7852 14.875 22.8415C15.7625 23.5527 16.8875 23.954 18.0375 23.954C19.1875 23.954 20.3125 23.5527 21.2 22.8277C21.2663 22.784 26.4588 18.6165 29.4738 16.2215C29.8838 15.8952 30.4862 16.1877 30.4875 16.709C30.5 19.4702 30.5 24.9252 30.5 24.9252" fill="white"/>
<path d="M29.8451 12.092C28.7626 10.052 26.6326 8.74951 24.2876 8.74951H11.8126C9.4676 8.74951 7.3376 10.052 6.2551 12.092C6.0126 12.5483 6.1276 13.117 6.53135 13.4395L15.8126 20.8633C16.4626 21.3883 17.2501 21.6495 18.0376 21.6495C18.0426 21.6495 18.0463 21.6495 18.0501 21.6495C18.0538 21.6495 18.0588 21.6495 18.0626 21.6495C18.8501 21.6495 19.6376 21.3883 20.2876 20.8633L29.5688 13.4395C29.9726 13.117 30.0876 12.5483 29.8451 12.092" fill="#30CB65"/>
</svg>
