<svg width="40" height="40" viewBox="0 0 40 40" fill="none" xmlns="http://www.w3.org/2000/svg">
<g clip-path="url(#clip0_263_26719)">
<path d="M25.7675 7H30.2821C32.1518 7 33.6668 8.5278 33.6668 10.4133V14.966C33.6668 16.8515 32.1518 18.3793 30.2821 18.3793H25.7675C23.8978 18.3793 22.3828 16.8515 22.3828 14.966V10.4133C22.3828 8.5278 23.8978 7 25.7675 7" fill="#30CB65"/>
<path d="M10.3847 7H14.8993C16.769 7 18.284 8.5278 18.284 10.4133V14.966C18.284 16.8515 16.769 18.3793 14.8993 18.3793H10.3847C8.51501 18.3793 7 16.8515 7 14.966V10.4133C7 8.5278 8.51501 7 10.3847 7" fill="#30CB65"/>
<path d="M10.3847 22.2874H14.8993C16.769 22.2874 18.284 23.8152 18.284 25.7006V30.2534C18.284 32.1376 16.769 33.6667 14.8993 33.6667H10.3847C8.51501 33.6667 7 32.1376 7 30.2534V25.7006C7 23.8152 8.51501 22.2874 10.3847 22.2874" fill="#30CB65"/>
<path d="M25.7675 22.2874H30.2821C32.1518 22.2874 33.6668 23.8152 33.6668 25.7006V30.2534C33.6668 32.1376 32.1518 33.6667 30.2821 33.6667H25.7675C23.8978 33.6667 22.3828 32.1376 22.3828 30.2534V25.7006C22.3828 23.8152 23.8978 22.2874 25.7675 22.2874" fill="#30CB65"/>
</g>
<defs>
<clipPath id="clip0_263_26719">
<rect width="40" height="40" fill="white"/>
</clipPath>
</defs>
</svg>
