<svg width="40" height="40" viewBox="0 0 40 40" fill="none" xmlns="http://www.w3.org/2000/svg">
<path d="M25.095 7.5H29.3275C31.0803 7.5 32.5006 8.93231 32.5006 10.7V14.9682C32.5006 16.7358 31.0803 18.1681 29.3275 18.1681H25.095C23.3422 18.1681 21.9219 16.7358 21.9219 14.9682V10.7C21.9219 8.93231 23.3422 7.5 25.095 7.5" fill="#30CB65"/>
<path d="M10.6732 7.5H14.9056C16.6584 7.5 18.0788 8.93231 18.0788 10.7V14.9682C18.0788 16.7358 16.6584 18.1681 14.9056 18.1681H10.6732C8.92032 18.1681 7.5 16.7358 7.5 14.9682V10.7C7.5 8.93231 8.92032 7.5 10.6732 7.5" fill="#002D33"/>
<path d="M10.6732 21.8319H14.9056C16.6584 21.8319 18.0788 23.2642 18.0788 25.0319V29.3001C18.0788 31.0665 16.6584 32.5 14.9056 32.5H10.6732C8.92032 32.5 7.5 31.0665 7.5 29.3001V25.0319C7.5 23.2642 8.92032 21.8319 10.6732 21.8319" fill="#30CB65"/>
<path d="M25.095 21.8319H29.3275C31.0803 21.8319 32.5006 23.2642 32.5006 25.0319V29.3001C32.5006 31.0665 31.0803 32.5 29.3275 32.5H25.095C23.3422 32.5 21.9219 31.0665 21.9219 29.3001V25.0319C21.9219 23.2642 23.3422 21.8319 25.095 21.8319" fill="#002D33"/>
</svg>
