<svg width="40" height="40" viewBox="0 0 40 40" fill="none" xmlns="http://www.w3.org/2000/svg">
<path d="M18.222 7.50012C12.3004 7.50012 7.5 12.3522 7.5 18.3375C7.5 24.3229 12.3004 29.1749 18.222 29.1749C24.1437 29.1749 28.9441 24.3229 28.9441 18.3375C28.9441 15.4633 27.8145 12.7067 25.8037 10.6743C23.7929 8.64192 21.0657 7.50012 18.222 7.50012Z" fill="#30CB65"/>
<path d="M31.9583 29.6456L28.765 27.0679C28.2818 26.588 27.5073 26.588 27.0242 27.0679C26.7736 27.3203 26.6328 27.663 26.6328 28.0205C26.6328 28.378 26.7736 28.7208 27.0242 28.9732V28.9732V28.9732L29.6742 32.0103C30.3202 32.6633 31.3677 32.6633 32.0137 32.0103C32.6598 31.3573 32.6598 30.2986 32.0137 29.6456H31.9583Z" fill="#00404F"/>
</svg>
