<svg width="40" height="40" viewBox="0 0 40 40" fill="none" xmlns="http://www.w3.org/2000/svg">
<path d="M31.5377 22.9626C31.2949 22.5876 30.95 22.2126 30.5029 21.9751C30.1452 21.8001 29.9153 21.5126 29.7109 21.1751C29.0594 20.1001 29.4427 18.6876 30.5285 18.0501C31.8059 17.3376 32.2147 15.7501 31.4738 14.5126L30.6179 13.0376C29.8898 11.8001 28.2929 11.3626 27.0283 12.0876C25.9041 12.6876 24.4606 12.2876 23.8091 11.2251C23.6047 10.8751 23.4897 10.5001 23.5153 10.1251C23.5536 9.63762 23.4003 9.17512 23.1704 8.80012C22.6977 8.02512 21.8418 7.50012 20.8965 7.50012H19.0953C18.1628 7.52512 17.3069 8.02512 16.8343 8.80012C16.5915 9.17512 16.451 9.63762 16.4766 10.1251C16.5021 10.5001 16.3871 10.8751 16.1828 11.2251C15.5313 12.2876 14.0877 12.6876 12.9764 12.0876C11.6989 11.3626 10.1149 11.8001 9.37396 13.0376L8.51807 14.5126C7.78993 15.7501 8.19871 17.3376 9.46338 18.0501C10.5492 18.6876 10.9324 20.1001 10.2937 21.1751C10.0766 21.5126 9.84662 21.8001 9.48893 21.9751C9.0546 22.2126 8.67137 22.5876 8.46698 22.9626C7.99432 23.7376 8.01987 24.7126 8.49252 25.5251L9.37396 27.0251C9.84662 27.8251 10.7281 28.3251 11.6478 28.3251C12.0821 28.3251 12.5931 28.2001 13.0019 27.9501C13.3213 27.7376 13.7045 27.6626 14.1261 27.6626C15.3907 27.6626 16.451 28.7001 16.4766 29.9376C16.4766 31.3751 17.6518 32.5001 19.1337 32.5001H20.871C22.34 32.5001 23.5153 31.3751 23.5153 29.9376C23.5536 28.7001 24.6139 27.6626 25.8786 27.6626C26.2874 27.6626 26.6706 27.7376 27.0027 27.9501C27.4115 28.2001 27.9097 28.3251 28.3568 28.3251C29.2638 28.3251 30.1452 27.8251 30.6179 27.0251L31.5121 25.5251C31.972 24.6876 32.0103 23.7376 31.5377 22.9626" fill="#30CB65"/>
<path d="M20.0147 23.5378C18.0091 23.5378 16.3867 21.9753 16.3867 20.0128C16.3867 18.0503 18.0091 16.4753 20.0147 16.4753C22.0203 16.4753 23.6043 18.0503 23.6043 20.0128C23.6043 21.9753 22.0203 23.5378 20.0147 23.5378" fill="white"/>
</svg>
