<svg width="40" height="40" viewBox="0 0 40 40" fill="none" xmlns="http://www.w3.org/2000/svg">
<path d="M25.425 7.49976H14.5875C10.35 7.49976 7.5 10.4748 7.5 14.8998V25.1123C7.5 29.5248 10.35 32.4998 14.5875 32.4998H25.425C29.6625 32.4998 32.5 29.5248 32.5 25.1123V14.8998C32.5 10.4748 29.6625 7.49976 25.425 7.49976" fill="#30CB65"/>
<path d="M18.5177 24.0598C18.2377 24.0598 17.9577 23.9536 17.7439 23.7398L14.7777 20.7736C14.3502 20.3461 14.3502 19.6536 14.7777 19.2273C15.2052 18.7998 15.8964 18.7986 16.3239 19.2261L18.5177 21.4198L23.6777 16.2598C24.1052 15.8323 24.7964 15.8323 25.2239 16.2598C25.6514 16.6873 25.6514 17.3798 25.2239 17.8073L19.2914 23.7398C19.0777 23.9536 18.7977 24.0598 18.5177 24.0598" fill="white"/>
</svg>
