<svg width="40" height="40" viewBox="0 0 40 40" fill="none" xmlns="http://www.w3.org/2000/svg">
<path d="M18.0178 20.334C17.6368 19.5678 17.9183 18.6336 18.659 18.206V18.206C19.3885 17.7848 20.3154 17.9988 20.7858 18.6971L26.2947 26.8744C27.0297 27.9653 26.6842 29.458 25.5444 30.1161V30.1161C24.4208 30.7648 22.9895 30.3328 22.4116 29.1707L18.0178 20.334Z" fill="#00404F"/>
<path d="M7.17385 17.366C6.5536 16.2743 6.9323 14.8803 8.01971 14.2525L18.641 8.12034C19.4242 7.66813 20.3978 7.72503 21.1203 8.26523L26.2494 12.1002C27.5581 13.0787 27.4349 15.0898 26.0162 15.9089L13.1734 23.3237C12.086 23.9515 10.7016 23.5754 10.0814 22.4837L7.17385 17.366Z" fill="#30CB65"/>
</svg>
