<svg width="40" height="41" viewBox="0 0 40 41" fill="none" xmlns="http://www.w3.org/2000/svg">
<circle opacity="0.2" cx="20" cy="20.5127" r="20" fill="#30CBB8"/>
<path d="M20.02 10.5C14.21 10.5 10 15.24 10 20.5C10 22.18 10.49 23.91 11.35 25.49C11.51 25.75 11.53 26.08 11.42 26.39L10.75 28.63C10.6 29.17 11.06 29.57 11.57 29.41L13.59 28.81C14.14 28.63 14.57 28.86 15.081 29.17C16.541 30.03 18.36 30.47 20 30.47C24.96 30.47 30 26.64 30 20.47C30 15.15 25.7 10.5 20.02 10.5Z" fill="#30CB65"/>
<path fill-rule="evenodd" clip-rule="evenodd" d="M19.9805 21.7896C19.2705 21.7796 18.7005 21.2096 18.7005 20.4996C18.7005 19.7996 19.2805 19.2196 19.9805 19.2296C20.6905 19.2296 21.2605 19.7996 21.2605 20.5096C21.2605 21.2096 20.6905 21.7896 19.9805 21.7896ZM15.3701 21.7896C14.6701 21.7896 14.0901 21.2096 14.0901 20.5096C14.0901 19.7996 14.6601 19.2296 15.3701 19.2296C16.0801 19.2296 16.6501 19.7996 16.6501 20.5096C16.6501 21.2096 16.0801 21.7796 15.3701 21.7896ZM23.3103 20.5096C23.3103 21.2096 23.8803 21.7896 24.5903 21.7896C25.3003 21.7896 25.8703 21.2096 25.8703 20.5096C25.8703 19.7996 25.3003 19.2296 24.5903 19.2296C23.8803 19.2296 23.3103 19.7996 23.3103 20.5096Z" fill="#00404F"/>
</svg>
