<svg width="40" height="40" viewBox="0 0 40 40" fill="none" xmlns="http://www.w3.org/2000/svg">
<circle opacity="0.2" cx="20" cy="20" r="20" fill="#30CBB8"/>
<path d="M27.9927 27.0284H22.2984C21.7429 27.0284 21.291 27.4875 21.291 28.0518C21.291 28.6173 21.7429 29.0752 22.2984 29.0752H27.9927C28.5483 29.0752 29.0001 28.6173 29.0001 28.0518C29.0001 27.4875 28.5483 27.0284 27.9927 27.0284Z" fill="#002D33"/>
<path d="M18.309 14.9788L23.7049 19.3389C23.835 19.4432 23.8573 19.6345 23.7557 19.7678L17.3587 28.1031C16.9566 28.6181 16.364 28.9094 15.7291 28.9201L12.237 28.9631C12.0507 28.9653 11.8877 28.8363 11.8454 28.6514L11.0518 25.2007C10.9142 24.5665 11.0518 23.9108 11.4539 23.4055L17.8826 15.0304C17.9863 14.896 18.1778 14.8724 18.309 14.9788Z" fill="#30CB65"/>
<path d="M26.1213 16.7406L25.081 18.0392C24.9763 18.1714 24.7879 18.1929 24.6578 18.0876C23.3932 17.0642 20.155 14.438 19.2566 13.7103C19.1254 13.6028 19.1074 13.4114 19.2132 13.2781L20.2164 12.0323C21.1265 10.8605 22.7138 10.753 23.9942 11.7743L25.4652 12.946C26.0684 13.419 26.4705 14.0425 26.6081 14.6982C26.7668 15.4195 26.5975 16.1279 26.1213 16.7406Z" fill="#002D33"/>
</svg>
