<svg width="80" height="81" viewBox="0 0 80 81" fill="none" xmlns="http://www.w3.org/2000/svg">
<circle opacity="0.2" cx="40" cy="40.6528" r="40" fill="#30CBB8"/>
<path d="M39.6266 57.0486C35.8215 54.6983 32.2844 51.9271 29.0798 48.7855C26.8175 46.5424 25.0897 43.8036 24.0286 40.7783C22.1325 34.8782 24.3397 28.1353 30.5018 26.1335C33.7543 25.1121 37.2917 25.7391 40.0117 27.8192C42.7327 25.7414 46.2689 25.1146 49.5216 26.1335C55.6838 28.1353 57.9057 34.8782 56.0097 40.7783C54.9571 43.8008 53.2397 46.5393 50.9881 48.7855C47.7806 51.9236 44.2438 54.6946 40.4413 57.0486L40.0265 57.3195L39.6266 57.0486Z" fill="#30CB65"/>
<path d="M40.0181 57.3196L39.6266 57.0487C35.8168 54.6986 32.2747 51.9274 29.0649 48.7856C26.7919 46.5456 25.0539 43.8065 23.9841 40.7783C22.1029 34.8783 24.31 28.1354 30.4722 26.1336C33.7247 25.1121 37.3087 25.7396 40.0181 27.8372V57.3196Z" fill="#00404F"/>
<path d="M50.3839 37.3182C50.0491 37.2966 49.7373 37.1293 49.5216 36.8554C49.3059 36.5816 49.2052 36.2252 49.243 35.8698C49.2793 34.6992 48.6132 33.6337 47.586 33.2191C46.9347 33.0413 46.5403 32.3359 46.7032 31.6403C46.8578 30.9559 47.4987 30.5303 48.1429 30.6843C48.2242 30.6978 48.3025 30.7273 48.3738 30.7712C50.4333 31.5638 51.7667 33.6968 51.6606 36.0291C51.6572 36.3826 51.5194 36.7195 51.2787 36.9625C51.038 37.2056 50.7151 37.3339 50.3839 37.3182Z" fill="#00404F"/>
</svg>
