<svg width="40" height="41" viewBox="0 0 40 41" fill="none" xmlns="http://www.w3.org/2000/svg">
<circle opacity="0.2" cx="20" cy="20.0889" r="20" fill="#30CBB8"/>
<path d="M27.9926 27.1172H22.2983C21.7427 27.1172 21.2909 27.5762 21.2909 28.1406C21.2909 28.706 21.7427 29.1639 22.2983 29.1639H27.9926C28.5481 29.1639 29 28.706 29 28.1406C29 27.5762 28.5481 27.1172 27.9926 27.1172Z" fill="#002D33"/>
<path d="M18.309 15.0677L23.7049 19.4278C23.835 19.532 23.8573 19.7234 23.7557 19.8567L17.3587 28.192C16.9566 28.7069 16.364 28.9982 15.7291 29.009L12.237 29.052C12.0507 29.0541 11.8877 28.9251 11.8454 28.7403L11.0518 25.2896C10.9142 24.6554 11.0518 23.9996 11.4539 23.4944L17.8826 15.1193C17.9863 14.9849 18.1778 14.9612 18.309 15.0677Z" fill="#30CB65"/>
<path d="M26.1206 16.8295L25.0804 18.1281C24.9756 18.2603 24.7872 18.2818 24.6571 18.1764C23.3925 17.1531 20.1544 14.5269 19.2559 13.7992C19.1247 13.6917 19.1067 13.5003 19.2125 13.367L20.2157 12.1211C21.1258 10.9494 22.7131 10.8419 23.9936 11.8631L25.4645 13.0348C26.0677 13.5078 26.4698 14.1313 26.6074 14.7871C26.7661 15.5084 26.5968 16.2168 26.1206 16.8295Z" fill="#002D33"/>
</svg>
