<svg width="40" height="40" viewBox="0 0 40 40" fill="none" xmlns="http://www.w3.org/2000/svg">
<circle opacity="0.2" cx="20" cy="20" r="20" fill="#30CBB8"/>
<path d="M30 19.9998C30 25.5238 25.523 29.9998 20 29.9998C14.477 29.9998 10 25.5238 10 19.9998C10 14.4778 14.477 9.99976 20 9.99976C25.523 9.99976 30 14.4778 30 19.9998" fill="#30CB65"/>
<path d="M19.9996 24.9685C20.5484 24.9685 20.9934 24.5235 20.9934 23.9747C20.9934 23.4259 20.5484 22.981 19.9996 22.981C19.4508 22.981 19.0059 23.4259 19.0059 23.9747C19.0059 24.5235 19.4508 24.9685 19.9996 24.9685Z" fill="#00404F"/>
<path fill-rule="evenodd" clip-rule="evenodd" d="M16.6875 18.0123C16.6875 16.2858 18.2567 15.031 20 15.031C21.7433 15.031 23.3125 16.2858 23.3125 18.0123C23.3125 19.5162 22.1218 20.6622 20.6625 20.9326V20.9935C20.6625 21.3594 20.3659 21.656 20 21.656C19.6341 21.656 19.3375 21.3594 19.3375 20.9935V20.331C19.3375 19.9651 19.6341 19.6685 20 19.6685C21.1833 19.6685 21.9875 18.8463 21.9875 18.0123C21.9875 17.1782 21.1833 16.356 20 16.356C18.8167 16.356 18.0125 17.1782 18.0125 18.0123V18.3435C18.0125 18.7094 17.7159 19.006 17.35 19.006C16.9841 19.006 16.6875 18.7094 16.6875 18.3435V18.0123Z" fill="#00404F"/>
</svg>
