<svg width="42" height="34" viewBox="0 0 42 34" fill="none" xmlns="http://www.w3.org/2000/svg">
<path d="M0.999999 33.4148C0.447715 33.4148 0 32.9671 0 32.4148V22.4313C0 18.2028 0.67036 14.2838 2.01108 10.6742C3.36787 7.2822 5.58983 3.93576 8.67696 0.634849C9.01969 0.268383 9.58287 0.223793 9.98551 0.523194L14.4258 3.82498C14.9015 4.17869 14.9657 4.86573 14.5759 5.31231C12.6843 7.47941 11.2806 9.52453 10.3648 11.4477C9.51593 13.1454 8.94653 14.8431 8.65662 16.5409C8.55703 17.1241 9.02178 17.6356 9.6134 17.6356H14.7792C15.3315 17.6356 15.7792 18.0833 15.7792 18.6356V32.4148C15.7792 32.9671 15.3315 33.4148 14.7792 33.4148H0.999999ZM26.6799 33.4148C26.1276 33.4148 25.6799 32.9671 25.6799 32.4148V22.4313C25.6799 18.2028 26.3503 14.2838 27.691 10.6742C29.0478 7.2822 31.2698 3.93576 34.3569 0.634849C34.6996 0.268383 35.2628 0.223793 35.6654 0.523194L40.1058 3.82498C40.5815 4.17869 40.6456 4.86573 40.2558 5.31231C38.3642 7.47941 36.9605 9.52453 36.0447 11.4477C35.1959 13.1454 34.6265 14.8431 34.3366 16.5409C34.237 17.1241 34.7017 17.6356 35.2933 17.6356H40.4592C41.0115 17.6356 41.4592 18.0833 41.4592 18.6356V32.4148C41.4592 32.9671 41.0115 33.4148 40.4592 33.4148H26.6799Z" fill="#30CB65"/>
</svg>
