<svg width="40" height="40" viewBox="0 0 40 40" fill="none" xmlns="http://www.w3.org/2000/svg">
<circle opacity="0.2" cx="20" cy="20" r="20" fill="#30CBB8"/>
<path d="M18.5776 10C13.8403 10 10 13.8817 10 18.6699C10 23.4582 13.8403 27.3399 18.5776 27.3399C23.3149 27.3399 27.1553 23.4582 27.1553 18.6699C27.1553 16.3705 26.2516 14.1653 24.6429 12.5394C23.0343 10.9134 20.8526 10 18.5776 10Z" fill="#30CB65"/>
<path d="M29.568 27.7163L27.0133 25.6541C26.6268 25.2702 26.0072 25.2702 25.6207 25.6541C25.4203 25.856 25.3076 26.1302 25.3076 26.4162C25.3076 26.7022 25.4203 26.9765 25.6207 27.1783V27.1783V27.1783L27.7407 29.6081C28.2576 30.1305 29.0955 30.1305 29.6124 29.6081C30.1292 29.0857 30.1292 28.2387 29.6124 27.7163H29.568Z" fill="white"/>
</svg>
