<svg width="40" height="40" viewBox="0 0 40 40" fill="none" xmlns="http://www.w3.org/2000/svg">
<circle opacity="0.2" cx="20" cy="20" r="20" fill="#30CBB8"/>
<rect x="10" y="10" width="20" height="20" rx="5" fill="#30CB65"/>
<path d="M19.1359 14.8166C19.5217 14.1543 20.4784 14.1543 20.8642 14.8166L21.9335 16.6525C22.0748 16.8951 22.3115 17.0671 22.5859 17.1265L24.6624 17.5762C25.4115 17.7384 25.7071 18.6483 25.1965 19.2198L23.7809 20.8041C23.5938 21.0135 23.5034 21.2918 23.5316 21.5712L23.7457 23.685C23.8229 24.4475 23.0488 25.0098 22.3475 24.7008L20.4033 23.844C20.1464 23.7308 19.8537 23.7308 19.5968 23.844L17.6526 24.7008C16.9512 25.0098 16.1772 24.4475 16.2544 23.685L16.4684 21.5712C16.4967 21.2918 16.4063 21.0135 16.2192 20.8041L14.8036 19.2198C14.293 18.6483 14.5886 17.7384 15.3377 17.5762L17.4141 17.1265C17.6885 17.0671 17.9253 16.8951 18.0666 16.6525L19.1359 14.8166Z" fill="white"/>
</svg>
