<svg width="80" height="81" viewBox="0 0 80 81" fill="none" xmlns="http://www.w3.org/2000/svg">
<circle opacity="0.2" cx="40" cy="40.6528" r="40" fill="#30CBB8"/>
<path d="M47.2337 23.9858H32.7837C27.1337 23.9858 23.3337 27.9525 23.3337 33.8525V47.4692C23.3337 53.3525 27.1337 57.3192 32.7837 57.3192H47.2337C52.8837 57.3192 56.6671 53.3525 56.6671 47.4692V33.8525C56.6671 27.9525 52.8837 23.9858 47.2337 23.9858Z" fill="#30CB65"/>
<path d="M38.0223 46.066C37.649 46.066 37.2757 45.9244 36.9907 45.6394L33.0357 41.6844C32.4657 41.1144 32.4657 40.191 33.0357 39.6227C33.6057 39.0527 34.5273 39.051 35.0973 39.621L38.0223 42.546L44.9023 35.666C45.4723 35.096 46.394 35.096 46.964 35.666C47.534 36.236 47.534 37.1594 46.964 37.7294L39.054 45.6394C38.769 45.9244 38.3957 46.066 38.0223 46.066Z" fill="#002D33"/>
</svg>
