<svg width="40" height="40" viewBox="0 0 40 40" fill="none" xmlns="http://www.w3.org/2000/svg">
<circle opacity="0.2" cx="20" cy="20" r="20" fill="#30CBB8"/>
<path d="M20.02 10C14.21 10 10 14.74 10 20C10 21.68 10.49 23.41 11.35 24.99C11.51 25.25 11.53 25.58 11.42 25.89L10.75 28.13C10.6 28.67 11.06 29.07 11.57 28.91L13.59 28.31C14.14 28.13 14.57 28.36 15.081 28.67C16.541 29.53 18.36 29.97 20 29.97C24.96 29.97 30 26.14 30 19.97C30 14.65 25.7 10 20.02 10Z" fill="#30CB65"/>
<path fill-rule="evenodd" clip-rule="evenodd" d="M19.9807 21.2901C19.2707 21.2801 18.7007 20.7101 18.7007 20.0001C18.7007 19.3001 19.2807 18.7201 19.9807 18.7301C20.6907 18.7301 21.2607 19.3001 21.2607 20.0101C21.2607 20.7101 20.6907 21.2901 19.9807 21.2901ZM15.3703 21.2901C14.6703 21.2901 14.0903 20.7101 14.0903 20.0101C14.0903 19.3001 14.6603 18.7301 15.3703 18.7301C16.0803 18.7301 16.6503 19.3001 16.6503 20.0101C16.6503 20.7101 16.0803 21.2801 15.3703 21.2901ZM23.3105 20.0101C23.3105 20.7101 23.8805 21.2901 24.5905 21.2901C25.3005 21.2901 25.8705 20.7101 25.8705 20.0101C25.8705 19.3001 25.3005 18.7301 24.5905 18.7301C23.8805 18.7301 23.3105 19.3001 23.3105 20.0101Z" fill="white"/>
</svg>
