<svg width="48" height="48" viewBox="0 0 48 48" fill="none" xmlns="http://www.w3.org/2000/svg">
<circle opacity="0.2" cx="24" cy="24" r="24" fill="#30CBB8"/>
<path d="M26.4183 17.2526C25.9422 17.1646 25.505 17.4684 25.4144 17.9331C25.3238 18.3978 25.6285 18.8515 26.0916 18.9424C27.4859 19.2142 28.5624 20.2935 28.8353 21.6925V21.6935C28.913 22.0963 29.2675 22.389 29.6759 22.389C29.7306 22.389 29.7854 22.3841 29.8412 22.3741C30.3043 22.2811 30.609 21.8284 30.5184 21.3628C30.1111 19.2732 28.5027 17.6593 26.4183 17.2526" fill="white"/>
<path d="M26.3558 13.7706C26.1328 13.7386 25.9087 13.8046 25.7304 13.9465C25.5472 14.0904 25.4326 14.2983 25.4078 14.5311C25.355 15.0018 25.6946 15.4275 26.1646 15.4805C29.4063 15.8422 31.9259 18.3675 32.2904 21.6192C32.3392 22.0549 32.7047 22.3837 33.1409 22.3837C33.1738 22.3837 33.2057 22.3817 33.2385 22.3777C33.4666 22.3527 33.6698 22.2398 33.8132 22.0599C33.9556 21.8801 34.0203 21.6562 33.9944 21.4274C33.5403 17.3702 30.4002 14.2213 26.3558 13.7706" fill="white"/>
<path fill-rule="evenodd" clip-rule="evenodd" d="M23.0317 24.7351C27.0208 28.7231 27.9258 24.1094 30.4656 26.6475C32.9143 29.0955 34.3216 29.5859 31.2192 32.6874C30.8306 32.9997 28.3616 36.757 19.6846 28.0824C11.0065 19.4067 14.7616 16.9351 15.074 16.5466C18.1839 13.4365 18.6659 14.8521 21.1145 17.3C23.6544 19.8392 19.0427 20.7471 23.0317 24.7351Z" fill="#30CB65"/>
</svg>
