<svg width="40" height="40" viewBox="0 0 40 40" fill="none" xmlns="http://www.w3.org/2000/svg">
<circle opacity="0.2" cx="20" cy="20" r="20" fill="#30CBB8"/>
<path fill-rule="evenodd" clip-rule="evenodd" d="M16.2816 11.1179C18.4665 9.84843 21.152 9.87062 23.3164 11.176C25.4595 12.5081 26.762 14.8853 26.7498 17.4426C26.7 19.9831 25.3033 22.3712 23.5575 24.2172C22.5498 25.2876 21.4226 26.234 20.1988 27.0372C20.0728 27.1101 19.9348 27.1589 19.7915 27.1812C19.6536 27.1753 19.5193 27.1345 19.4008 27.0626C17.5324 25.8557 15.8933 24.3152 14.5623 22.5151C13.4486 21.0125 12.8158 19.1972 12.75 17.3156C12.7486 14.7534 14.0968 12.3874 16.2816 11.1179ZM17.5442 18.3759C17.9117 19.282 18.7792 19.873 19.7416 19.873C20.3721 19.8775 20.9782 19.625 21.4248 19.1716C21.8714 18.7183 22.1215 18.1018 22.1192 17.4595C22.1226 16.4792 21.5455 15.5935 20.6573 15.2159C19.7691 14.8384 18.745 15.0435 18.0633 15.7355C17.3816 16.4275 17.1766 17.4699 17.5442 18.3759Z" fill="#30CB65"/>
<ellipse cx="19.75" cy="29.1812" rx="5" ry="1" fill="#00404F"/>
</svg>
