<svg width="40" height="40" viewBox="0 0 40 40" fill="none" xmlns="http://www.w3.org/2000/svg">
<circle opacity="0.2" cx="20" cy="20" r="20" fill="#30CBB8"/>
<path fill-rule="evenodd" clip-rule="evenodd" d="M16.5316 11.0132C18.7165 9.74369 21.402 9.76588 23.5664 11.0713C25.7095 12.4033 27.012 14.7806 26.9998 17.3379C26.95 19.8784 25.5533 22.2664 23.8075 24.1125C22.7998 25.1828 21.6726 26.1292 20.4488 26.9325C20.3228 27.0053 20.1848 27.0541 20.0415 27.0764C19.9036 27.0705 19.7693 27.0298 19.6508 26.9579C17.7824 25.751 16.1433 24.2105 14.8123 22.4104C13.6986 20.9078 13.0658 19.0924 13 17.2108C12.9986 14.6487 14.3468 12.2827 16.5316 11.0132ZM17.7942 18.2712C18.1617 19.1773 19.0292 19.7683 19.9916 19.7683C20.6221 19.7728 21.2282 19.5202 21.6748 19.0669C22.1214 18.6135 22.3715 17.9971 22.3692 17.3548C22.3726 16.3745 21.7955 15.4887 20.9073 15.1112C20.0191 14.7337 18.995 14.9388 18.3133 15.6308C17.6316 16.3228 17.4266 17.3651 17.7942 18.2712Z" fill="#30CB65"/>
<ellipse cx="20" cy="29.0764" rx="5" ry="1" fill="#00404F"/>
</svg>
