<svg width="40" height="40" viewBox="0 0 40 40" fill="none" xmlns="http://www.w3.org/2000/svg">
<circle opacity="0.2" cx="20" cy="20" r="20" fill="#30CBB8"/>
<path d="M28.3337 23.2837C28.3337 25.6087 26.467 27.492 24.142 27.5003H24.1337H15.8753C13.5587 27.5003 11.667 25.6253 11.667 23.3003V23.292C11.667 23.292 11.672 19.6037 11.6787 17.7487C11.6795 17.4003 12.0795 17.2053 12.352 17.422C14.332 18.9928 17.8728 21.857 17.917 21.8945C18.5087 22.3687 19.2587 22.6362 20.0253 22.6362C20.792 22.6362 21.542 22.3687 22.1337 21.8853C22.1778 21.8562 25.6395 19.0778 27.6495 17.4812C27.9228 17.2637 28.3245 17.4587 28.3253 17.8062C28.3337 19.647 28.3337 23.2837 28.3337 23.2837" fill="#00404F"/>
<path d="M27.8967 14.7281C27.1751 13.3681 25.7551 12.4998 24.1917 12.4998H15.8751C14.3117 12.4998 12.8917 13.3681 12.1701 14.7281C12.0084 15.0323 12.0851 15.4114 12.3542 15.6264L18.5417 20.5756C18.9751 20.9256 19.5001 21.0998 20.0251 21.0998C20.0284 21.0998 20.0309 21.0998 20.0334 21.0998C20.0359 21.0998 20.0392 21.0998 20.0417 21.0998C20.5667 21.0998 21.0917 20.9256 21.5251 20.5756L27.7126 15.6264C27.9817 15.4114 28.0584 15.0323 27.8967 14.7281" fill="#30CB65"/>
</svg>
