<svg width="80" height="81" viewBox="0 0 80 81" fill="none" xmlns="http://www.w3.org/2000/svg">
<circle opacity="0.2" cx="40" cy="40.6528" r="40" fill="#30CBB8"/>
<path d="M39.915 44.8862C34.1651 44.8862 29.3135 45.8258 29.3135 49.4521C29.3135 53.0798 34.1964 53.9864 39.915 53.9864C45.665 53.9864 50.5166 53.0468 50.5166 49.4205C50.5166 45.7928 45.6337 44.8862 39.915 44.8862Z" fill="#002D33"/>
<path d="M39.9151 41.4313C43.8086 41.4313 46.9306 38.2914 46.9306 34.3754C46.9306 30.458 43.8086 27.3196 39.9151 27.3196C36.0216 27.3196 32.8997 30.458 32.8997 34.3754C32.8997 38.2914 36.0216 41.4313 39.9151 41.4313Z" fill="#30CB65"/>
<path d="M55.1466 36.0185C56.1539 32.056 53.2006 28.4973 49.4399 28.4973C49.031 28.4973 48.64 28.5423 48.258 28.6189C48.2072 28.6309 48.1505 28.6564 48.1207 28.7014C48.0864 28.7585 48.1117 28.835 48.149 28.8846C49.2787 30.4785 49.9279 32.4192 49.9279 34.5025C49.9279 36.4988 49.3325 38.3599 48.2878 39.9044C48.1804 40.0635 48.2759 40.2781 48.4654 40.3111C48.7281 40.3576 48.9967 40.3817 49.2713 40.3892C52.0097 40.4612 54.4676 38.6886 55.1466 36.0185Z" fill="#30CB65"/>
<path d="M58.0154 45.3478C57.514 44.2732 56.3037 43.5362 54.4637 43.1745C53.5951 42.9614 51.2447 42.6612 49.0584 42.7017C49.0256 42.7062 49.0077 42.7287 49.0047 42.7437C49.0002 42.7647 49.0092 42.8008 49.0525 42.8233C50.0628 43.3261 53.9682 45.5129 53.4772 50.1253C53.4563 50.3249 53.616 50.4975 53.8145 50.4675C54.7756 50.3294 57.2484 49.7951 58.0154 48.1306C58.4393 47.251 58.4393 46.2289 58.0154 45.3478Z" fill="#002D33"/>
<path d="M31.7414 28.6191C31.3608 28.5411 30.9684 28.4976 30.5595 28.4976C26.7988 28.4976 23.8454 32.0563 24.8542 36.0187C25.5318 38.6889 27.9896 40.4614 30.7281 40.3894C31.0027 40.3819 31.2728 40.3564 31.534 40.3114C31.7235 40.2783 31.819 40.0637 31.7115 39.9046C30.6669 38.3586 30.0715 36.499 30.0715 34.5028C30.0715 32.418 30.7221 30.4773 31.8518 28.8848C31.8876 28.8353 31.9145 28.7587 31.8787 28.7017C31.8488 28.6552 31.7936 28.6311 31.7414 28.6191Z" fill="#30CB65"/>
<path d="M25.536 43.174C23.696 43.5357 22.4872 44.2727 21.9857 45.3473C21.5604 46.2284 21.5604 47.2505 21.9857 48.1316C22.7528 49.7946 25.2256 50.3304 26.1867 50.467C26.3851 50.497 26.5433 50.3259 26.5224 50.1248C26.0315 45.5139 29.9369 43.3271 30.9487 42.8243C30.9905 42.8003 30.9995 42.7657 30.995 42.7432C30.992 42.7282 30.9756 42.7057 30.9427 42.7027C28.755 42.6607 26.406 42.9609 25.536 43.174Z" fill="#002D33"/>
</svg>
