<svg width="40" height="40" viewBox="0 0 40 40" fill="none" xmlns="http://www.w3.org/2000/svg">
<circle opacity="0.2" cx="20" cy="20" r="20" fill="#30CBB8"/>
<path d="M18.5776 10.0001C13.8403 10.0001 10 13.8818 10 18.67C10 23.4583 13.8403 27.34 18.5776 27.34C23.3149 27.34 27.1553 23.4583 27.1553 18.67C27.1553 16.3706 26.2516 14.1654 24.6429 12.5395C23.0343 10.9136 20.8526 10.0001 18.5776 10.0001Z" fill="#30CB65"/>
<path d="M29.568 27.7165L27.0133 25.6544C26.6268 25.2705 26.0072 25.2705 25.6207 25.6544C25.4203 25.8563 25.3076 26.1305 25.3076 26.4165C25.3076 26.7025 25.4203 26.9767 25.6207 27.1786V27.1786V27.1786L27.7407 29.6083C28.2576 30.1307 29.0955 30.1307 29.6124 29.6083C30.1292 29.0859 30.1292 28.2389 29.6124 27.7165H29.568Z" fill="#00404F"/>
</svg>
