<svg width="40" height="40" viewBox="0 0 40 40" fill="none" xmlns="http://www.w3.org/2000/svg">
<circle opacity="0.2" cx="20" cy="20" r="20" fill="#30CBB8"/>
<path d="M29.9999 20C29.9999 25.524 25.5229 30 19.9999 30C14.4769 30 9.99988 25.524 9.99988 20C9.99988 14.478 14.4769 10 19.9999 10C25.5229 10 29.9999 14.478 29.9999 20" fill="#30CB65"/>
<path fill-rule="evenodd" clip-rule="evenodd" d="M20.87 20.6309C20.87 21.1129 20.477 21.5059 19.995 21.5059C19.513 21.5059 19.12 21.1129 19.12 20.6309V16.2109C19.12 15.7289 19.513 15.3359 19.995 15.3359C20.477 15.3359 20.87 15.7289 20.87 16.2109V20.6309ZM19.125 23.8037C19.125 23.3217 19.516 22.9287 19.995 22.9287C20.488 22.9287 20.88 23.3217 20.88 23.8037C20.88 24.2857 20.488 24.6787 20.005 24.6787C19.52 24.6787 19.125 24.2857 19.125 23.8037Z" fill="#00404F"/>
</svg>
