<svg width="40" height="40" viewBox="0 0 40 40" fill="none" xmlns="http://www.w3.org/2000/svg">
<circle opacity="0.2" cx="20" cy="20" r="20" fill="#30CBB8"/>
<path d="M19.4912 26.6217L12.9994 29.8643C12.5092 30.1304 11.8977 29.9527 11.6235 29.4645C11.5434 29.311 11.5011 29.1404 11.5 28.967V21.709C11.5 22.4286 11.9057 22.8728 12.973 23.3702L19.4912 26.6217Z" fill="#00404F"/>
<path fill-rule="evenodd" clip-rule="evenodd" d="M16.3953 10H22.5695C25.2773 10 27.4735 11.0661 27.5 13.7934V28.9668C27.4989 29.1374 27.4565 29.3051 27.3765 29.4554C27.2479 29.7007 27.0259 29.8827 26.7615 29.9598C26.497 30.0368 26.2128 30.0023 25.9741 29.8641L19.4912 26.6215L12.973 23.3701C11.9057 22.8726 11.5 22.4284 11.5 21.7088V13.7934C11.5 11.0661 13.6963 10 16.3953 10ZM15.7249 17.6223H23.2486C23.6822 17.6223 24.0336 17.2683 24.0336 16.8316C24.0336 16.3949 23.6822 16.041 23.2486 16.041H15.7249C15.2914 16.041 14.9399 16.3949 14.9399 16.8316C14.9399 17.2683 15.2914 17.6223 15.7249 17.6223Z" fill="#30CB65"/>
</svg>
