<svg width="40" height="40" viewBox="0 0 40 40" fill="none" xmlns="http://www.w3.org/2000/svg">
<circle opacity="0.2" cx="20" cy="20" r="20" fill="#30CBB8"/>
<path d="M22.4183 13.4899C21.9422 13.4019 21.505 13.7057 21.4144 14.1704C21.3238 14.6351 21.6285 15.0888 22.0916 15.1797C23.4859 15.4515 24.5624 16.5308 24.8353 17.9298V17.9308C24.913 18.3336 25.2675 18.6264 25.6759 18.6264C25.7306 18.6264 25.7854 18.6214 25.8412 18.6114C26.3043 18.5184 26.609 18.0657 26.5184 17.6001C26.1111 15.5105 24.5027 13.8966 22.4183 13.4899" fill="#00404F"/>
<path d="M22.3558 10.0079C22.1328 9.97595 21.9087 10.0419 21.7304 10.1838C21.5472 10.3277 21.4326 10.5356 21.4078 10.7684C21.355 11.2391 21.6946 11.6648 22.1646 11.7178C25.4063 12.0795 27.9259 14.6048 28.2904 17.8565C28.3392 18.2922 28.7047 18.621 29.1409 18.621C29.1738 18.621 29.2057 18.619 29.2385 18.615C29.4666 18.59 29.6698 18.4771 29.8132 18.2972C29.9556 18.1174 30.0203 17.8935 29.9944 17.6647C29.5403 13.6075 26.4002 10.4586 22.3558 10.0079" fill="#00404F"/>
<path fill-rule="evenodd" clip-rule="evenodd" d="M19.0317 20.9724C23.0208 24.9604 23.9258 20.3467 26.4656 22.8848C28.9143 25.3328 30.3216 25.8232 27.2192 28.9247C26.8306 29.237 24.3616 32.9943 15.6846 24.3197C7.00652 15.644 10.7616 13.1724 11.074 12.7839C14.1839 9.67385 14.6659 11.0894 17.1145 13.5373C19.6544 16.0765 15.0427 16.9844 19.0317 20.9724Z" fill="#30CB65"/>
</svg>
