<svg width="48" height="48" viewBox="0 0 48 48" fill="none" xmlns="http://www.w3.org/2000/svg">
<circle opacity="0.2" cx="24" cy="24" r="24" fill="#30CBB8"/>
<path d="M34 27.94C34 30.73 31.76 32.99 28.97 33H28.96H19.05C16.27 33 14 30.75 14 27.96V27.95C14 27.95 14.006 23.524 14.014 21.298C14.015 20.88 14.495 20.646 14.822 20.906C17.198 22.791 21.447 26.228 21.5 26.273C22.21 26.842 23.11 27.163 24.03 27.163C24.95 27.163 25.85 26.842 26.56 26.262C26.613 26.227 30.767 22.893 33.179 20.977C33.507 20.716 33.989 20.95 33.99 21.367C34 23.576 34 27.94 34 27.94" fill="#00404F"/>
<path d="M33.4759 17.6735C32.6099 16.0415 30.9059 14.9995 29.0299 14.9995H19.0499C17.1739 14.9995 15.4699 16.0415 14.6039 17.6735C14.4099 18.0385 14.5019 18.4935 14.8249 18.7515L22.2499 24.6905C22.7699 25.1105 23.3999 25.3195 24.0299 25.3195C24.0339 25.3195 24.0369 25.3195 24.0399 25.3195C24.0429 25.3195 24.0469 25.3195 24.0499 25.3195C24.6799 25.3195 25.3099 25.1105 25.8299 24.6905L33.2549 18.7515C33.5779 18.4935 33.6699 18.0385 33.4759 17.6735" fill="#30CB65"/>
</svg>
