<svg width="40" height="41" viewBox="0 0 40 41" fill="none" xmlns="http://www.w3.org/2000/svg">
<circle opacity="0.2" cx="20" cy="20.8149" r="20" fill="#30CBB8"/>
<path d="M22.0149 15.1923C21.6182 15.119 21.2539 15.3722 21.1783 15.7594C21.1028 16.1467 21.3568 16.5247 21.7427 16.6005C22.9046 16.827 23.8017 17.7264 24.0291 18.8923V18.8931C24.0938 19.2287 24.3893 19.4727 24.7296 19.4727C24.7752 19.4727 24.8208 19.4685 24.8673 19.4602C25.2532 19.3828 25.5072 19.0055 25.4317 18.6175C25.0922 16.8762 23.7519 15.5312 22.0149 15.1923" fill="#00404F"/>
<path d="M21.9626 12.2905C21.7767 12.2639 21.5899 12.3189 21.4414 12.4371C21.2887 12.557 21.1932 12.7302 21.1725 12.9243C21.1285 13.3165 21.4115 13.6713 21.8032 13.7154C24.5046 14.0169 26.6043 16.1212 26.908 18.8311C26.9487 19.1941 27.2533 19.4681 27.6168 19.4681C27.6442 19.4681 27.6707 19.4664 27.6981 19.4631C27.8882 19.4423 28.0575 19.3482 28.177 19.1983C28.2957 19.0484 28.3496 18.8619 28.328 18.6712C27.9496 15.2902 25.3329 12.6661 21.9626 12.2905" fill="#00404F"/>
<path fill-rule="evenodd" clip-rule="evenodd" d="M19.1934 21.4275C22.5177 24.7508 23.2718 20.9061 25.3884 23.0212C27.4289 25.0612 28.6017 25.4699 26.0164 28.0545C25.6925 28.3147 23.635 31.4457 16.4042 24.2169C9.17243 16.9872 12.3016 14.9276 12.562 14.6038C15.1535 12.0121 15.5552 13.1917 17.5957 15.2316C19.7123 17.3476 15.8692 18.1042 19.1934 21.4275Z" fill="#30CB65"/>
</svg>
