<svg width="40" height="40" viewBox="0 0 40 40" fill="none" xmlns="http://www.w3.org/2000/svg">
<circle opacity="0.2" cx="20" cy="20" r="20" fill="#30CBB8"/>
<path d="M30 23.9402C30 26.7302 27.76 28.9902 24.97 29.0002H24.96H15.05C12.27 29.0002 10 26.7502 10 23.9602V23.9502C10 23.9502 10.006 19.5242 10.014 17.2982C10.015 16.8802 10.495 16.6462 10.822 16.9062C13.198 18.7912 17.447 22.2282 17.5 22.2732C18.21 22.8422 19.11 23.1632 20.03 23.1632C20.95 23.1632 21.85 22.8422 22.56 22.2622C22.613 22.2272 26.767 18.8932 29.179 16.9772C29.507 16.7162 29.989 16.9502 29.99 17.3672C30 19.5762 30 23.9402 30 23.9402" fill="#00404F"/>
<path d="M29.4769 13.6736C28.6109 12.0416 26.9069 10.9996 25.0309 10.9996H15.0509C13.1749 10.9996 11.4709 12.0416 10.6049 13.6736C10.4109 14.0386 10.5029 14.4936 10.8259 14.7516L18.2509 20.6906C18.7709 21.1106 19.4009 21.3196 20.0309 21.3196C20.0349 21.3196 20.0379 21.3196 20.0409 21.3196C20.0439 21.3196 20.0479 21.3196 20.0509 21.3196C20.6809 21.3196 21.3109 21.1106 21.8309 20.6906L29.2559 14.7516C29.5789 14.4936 29.6709 14.0386 29.4769 13.6736" fill="#30CB65"/>
</svg>
