<svg width="80" height="80" viewBox="0 0 80 80" fill="none" xmlns="http://www.w3.org/2000/svg">
<circle cx="40" cy="40" r="40" fill="#00404F"/>
<path d="M47.232 23.333H32.782C27.132 23.333 23.332 27.2997 23.332 33.1997V46.8163C23.332 52.6997 27.132 56.6663 32.782 56.6663H47.232C52.882 56.6663 56.6654 52.6997 56.6654 46.8163V33.1997C56.6654 27.2997 52.882 23.333 47.232 23.333" fill="#30CB65"/>
<path d="M45.0259 42.9505L42.0609 39.9872L45.0242 37.0239C45.5942 36.4555 45.5942 35.5305 45.0242 34.9622C44.4542 34.3889 43.5326 34.3905 42.9626 34.9605L39.9976 37.9239L37.0326 34.9572C36.4626 34.3872 35.5392 34.3905 34.9692 34.9572C34.4009 35.5272 34.4009 36.4522 34.9692 37.0205L37.9359 39.9872L34.9759 42.9455C34.4059 43.5155 34.4059 44.4405 34.9759 45.0072C35.2609 45.2939 35.6326 45.4355 36.0059 45.4355C36.3809 45.4355 36.7526 45.2939 37.0376 45.0089L39.9976 42.0489L42.9642 45.0139C43.2492 45.2989 43.6209 45.4405 43.9942 45.4405C44.3676 45.4405 44.7409 45.2972 45.0259 45.0139C45.5959 44.4439 45.5959 43.5205 45.0259 42.9505" fill="white"/>
</svg>
