<svg width="48" height="48" viewBox="0 0 48 48" fill="none" xmlns="http://www.w3.org/2000/svg">
<circle opacity="0.2" cx="24" cy="24" r="24" fill="#30CBB8"/>
<path d="M19.8574 29.5385C20.4302 31.1586 21.4912 32.5611 22.8944 33.553C24.2975 34.5449 25.9737 35.0774 27.692 35.0769H35.3073C35.4909 35.0769 35.667 35.004 35.7968 34.8742C35.9267 34.7443 35.9996 34.5682 35.9996 34.3846V26.7693C35.9995 24.6447 35.1855 22.6009 33.7249 21.0581C32.2642 19.5152 30.268 18.5906 28.1466 18.4744" fill="#30CB65"/>
<path d="M20.3076 29.5386H12.6923C12.5087 29.5386 12.3326 29.4657 12.2028 29.3358C12.0729 29.206 12 29.0299 12 28.8463V21.231C12 19.0276 12.8753 16.9146 14.4332 15.3566C15.9912 13.7986 18.1043 12.9233 20.3076 12.9233C22.511 12.9233 24.624 13.7986 26.182 15.3566C27.74 16.9146 28.6153 19.0276 28.6153 21.231C28.6153 23.4343 27.74 25.5474 26.182 27.1054C24.624 28.6633 22.511 29.5386 20.3076 29.5386Z" fill="white"/>
</svg>
