<svg width="48" height="48" viewBox="0 0 48 48" fill="none" xmlns="http://www.w3.org/2000/svg">
<circle opacity="0.2" cx="24" cy="24" r="24" fill="#30CBB8"/>
<path d="M34 27.9402C34 30.7302 31.76 32.9902 28.97 33.0002H28.96H19.05C16.27 33.0002 14 30.7502 14 27.9602V27.9502C14 27.9502 14.006 23.5242 14.014 21.2982C14.015 20.8802 14.495 20.6462 14.822 20.9062C17.198 22.7912 21.447 26.2282 21.5 26.2732C22.21 26.8422 23.11 27.1632 24.03 27.1632C24.95 27.1632 25.85 26.8422 26.56 26.2622C26.613 26.2272 30.767 22.8932 33.179 20.9772C33.507 20.7162 33.989 20.9502 33.99 21.3672C34 23.5762 34 27.9402 34 27.9402" fill="white"/>
<path d="M33.4759 17.6736C32.6099 16.0416 30.9059 14.9996 29.0299 14.9996H19.0499C17.1739 14.9996 15.4699 16.0416 14.6039 17.6736C14.4099 18.0386 14.5019 18.4936 14.8249 18.7516L22.2499 24.6906C22.7699 25.1106 23.3999 25.3196 24.0299 25.3196C24.0339 25.3196 24.0369 25.3196 24.0399 25.3196C24.0429 25.3196 24.0469 25.3196 24.0499 25.3196C24.6799 25.3196 25.3099 25.1106 25.8299 24.6906L33.2549 18.7516C33.5779 18.4936 33.6699 18.0386 33.4759 17.6736" fill="#30CB65"/>
</svg>
