<svg width="80" height="81" viewBox="0 0 80 81" fill="none" xmlns="http://www.w3.org/2000/svg">
<circle opacity="0.2" cx="40" cy="40.3394" r="40" fill="#30CBB8"/>
<path fill-rule="evenodd" clip-rule="evenodd" d="M32.9467 34.8624H47.0507C50.9798 34.8624 54.1654 37.9778 54.1654 41.8202V50.0483C54.1654 53.8907 50.9798 57.006 47.0507 57.006H32.9467C29.0176 57.006 25.832 53.8907 25.832 50.0483V41.8202C25.832 37.9778 29.0176 34.8624 32.9467 34.8624ZM39.9902 49.2218C40.8201 49.2218 41.4806 48.5759 41.4806 47.7643V44.0876C41.4806 43.2926 40.8201 42.6466 39.9902 42.6466C39.1773 42.6466 38.5168 43.2926 38.5168 44.0876V47.7643C38.5168 48.5759 39.1773 49.2218 39.9902 49.2218Z" fill="#30CB65"/>
<path fill-rule="evenodd" clip-rule="evenodd" d="M40 42.4655C40.8284 42.4655 41.5 43.137 41.5 43.9655V47.903C41.5 48.7314 40.8284 49.403 40 49.403C39.1716 49.403 38.5 48.7314 38.5 47.903V43.9655C38.5 43.137 39.1716 42.4655 40 42.4655Z" fill="white"/>
<path d="M49.202 32.666V35.1172C48.6093 34.9516 47.9826 34.8687 47.3391 34.8687H46.2383V32.666C46.2383 29.3039 43.4439 26.5711 40.006 26.5711C36.568 26.5711 33.7736 29.2873 33.7567 32.6329V34.8687H32.6728C32.0123 34.8687 31.3857 34.9516 30.793 35.1337V32.666C30.8099 27.6973 34.9253 23.6727 39.9721 23.6727C45.0867 23.6727 49.202 27.6973 49.202 32.666Z" fill="#002D33"/>
</svg>
