<svg width="40" height="40" viewBox="0 0 40 40" fill="none" xmlns="http://www.w3.org/2000/svg">
<path d="M8 8.00178C8 7.51087 8.39796 7.11292 8.88886 7.11292H9.73434C15.6252 7.11292 20.4007 11.8884 20.4007 17.7793V18.6248C20.4007 19.1157 20.0027 19.5136 19.5118 19.5136H18.6664C12.7755 19.5136 8 14.7381 8 8.84726V8.00178Z" fill="#30CB65"/>
<path d="M32 8.00202C32 7.51112 31.602 7.11316 31.1111 7.11316H30.2657C24.3748 7.11316 19.5993 11.8887 19.5993 17.7795V18.625C19.5993 19.1159 19.9973 19.5139 20.4882 19.5139H21.3336C27.2245 19.5139 32 14.7384 32 8.8475V8.00202Z" fill="#30CB65"/>
<path fill-rule="evenodd" clip-rule="evenodd" d="M20.066 16.2461C20.659 16.2461 21.1398 16.7269 21.1398 17.3199L21.1398 26.914C21.1398 27.5071 20.659 27.9879 20.066 27.9879C19.4729 27.9879 18.9922 27.5071 18.9922 26.914L18.9922 17.3199C18.9922 16.7269 19.4729 16.2461 20.066 16.2461Z" fill="#30CB65"/>
<path d="M18.8564 32.8853C19.4886 32.8853 20.0133 32.2417 19.8794 31.4744C19.663 30.2337 19.1636 29.0852 18.4296 28.1736C17.4234 26.924 16.0587 26.2219 14.6358 26.2219C13.2128 26.2219 11.8481 26.924 10.8419 28.1736C10.1079 29.0852 9.60857 30.2337 9.39212 31.4744C9.25826 32.2417 9.78295 32.8853 10.4151 32.8853L14.6358 32.8853H18.8564Z" fill="#00404F"/>
<path d="M25.7565 32.8846C26.3886 32.8846 26.9108 32.2439 26.8064 31.4696C26.5708 29.7206 25.902 28.0926 24.8791 26.8223C23.5845 25.2144 21.8286 24.3112 19.9978 24.3112C18.1669 24.3112 16.411 25.2144 15.1164 26.8223C14.0935 28.0926 13.4248 29.7206 13.1891 31.4696C13.0848 32.2439 13.6069 32.8846 14.2391 32.8846L19.9978 32.8846H25.7565Z" fill="#00404F"/>
<path d="M28.7498 32.8839C29.3819 32.8839 29.9094 32.2362 29.7408 31.4796C29.5471 30.6108 29.1752 29.8103 28.6529 29.1617C27.858 28.1745 26.7799 27.6199 25.6558 27.6199C24.5317 27.6199 23.4536 28.1745 22.6587 29.1617C22.1364 29.8103 21.7645 30.6108 21.5709 31.4796C21.4022 32.2362 21.9297 32.8839 22.5618 32.8839L25.6558 32.8839H28.7498Z" fill="#00404F"/>
</svg>
