<svg width="40" height="40" viewBox="0 0 40 40" fill="none" xmlns="http://www.w3.org/2000/svg">
<path d="M22.8388 29.4041C22.1386 29.2528 17.8719 29.2528 17.1717 29.4041C16.5731 29.5441 15.9258 29.8695 15.9258 30.5834C15.9606 31.2643 16.3545 31.8654 16.9002 32.2465L16.8988 32.248C17.6046 32.8047 18.4329 33.1588 19.3002 33.2858C19.7623 33.3501 20.2328 33.3472 20.7117 33.2858C21.5776 33.1588 22.4059 32.8047 23.1117 32.248L23.1103 32.2465C23.6559 31.8654 24.0499 31.2643 24.0847 30.5834C24.0847 29.8695 23.4374 29.5441 22.8388 29.4041" fill="#00404F"/>
<path fill-rule="evenodd" clip-rule="evenodd" d="M24.1679 26.3239C24.6438 25.4128 24.9481 24.1872 25.7533 23.5484C27.9325 21.8195 29.3328 19.1309 29.3328 16.1112C29.3328 10.8951 25.1546 6.66663 20.0004 6.66663C14.8462 6.66663 10.668 10.8951 10.668 16.1112C10.668 19.129 12.0665 21.8162 14.2435 23.5453C15.049 24.185 15.3529 25.4121 15.8291 26.3239V26.3239L16.0145 26.6788C16.3593 27.339 17.0424 27.7528 17.7872 27.7528H22.2098C22.9546 27.7528 23.6377 27.3389 23.9825 26.6788L24.1679 26.3239V26.3239Z" fill="#30CB65"/>
</svg>
