<svg width="1102" height="981" viewBox="0 0 1102 981" fill="none" xmlns="http://www.w3.org/2000/svg">
<path d="M1089.36 106.972C1024.81 262.352 914.908 423.547 746.878 477.596C704.318 491.286 657.31 493.27 611.944 484.966M611.944 484.966C542.849 472.318 477.562 435.804 437.604 380.435C375.089 293.81 348.241 179.831 417.888 90.4839C454.19 43.9129 506.322 19.1991 562.657 47.5815C648.724 90.9434 671.235 225.569 659.55 310.678C651.471 369.522 635.176 428.232 611.944 484.966ZM12.0194 968.575C70.6726 959.168 129.006 941.552 185.207 917.046C382.684 830.94 547.628 682.929 613.83 483.987" stroke="url(#paint0_linear_127_24132)" stroke-width="24" stroke-linecap="round"/>
<defs>
<linearGradient id="paint0_linear_127_24132" x1="154.984" y1="1071.46" x2="786.984" y2="231.455" gradientUnits="userSpaceOnUse">
<stop stop-color="#30CB65"/>
<stop offset="0.174954" stop-color="#30CB73"/>
<stop offset="1" stop-color="#30CBB8"/>
</linearGradient>
</defs>
</svg>
