<svg width="1964" height="356" viewBox="0 0 1964 356" fill="none" xmlns="http://www.w3.org/2000/svg">
<g clip-path="url(#clip0_4515_23018)">
<path fill-rule="evenodd" clip-rule="evenodd" d="M1617.88 306.795C1452.64 373.238 1238.31 385.919 985.568 263.599C503.782 30.4267 150.313 120.713 24.4911 197.951C18.6077 201.563 10.8864 200.062 7.01314 194.347V194.347C3.13989 188.633 4.55823 180.884 10.4289 177.252C144.046 94.5794 507.308 4.35908 996.459 241.096C1242.92 360.376 1449.91 347.39 1608.55 283.6C1761.32 222.169 1869.94 113.313 1925.68 28.2838C1929.47 22.5103 1937.14 20.7143 1943.01 24.3472V24.3472C1948.88 27.9802 1950.72 35.6691 1946.95 41.4472C1888.85 130.299 1776.28 243.099 1617.88 306.795Z" fill="url(#paint0_linear_4515_23018)"/>
</g>
<defs>
<linearGradient id="paint0_linear_4515_23018" x1="975.013" y1="24.3472" x2="975.013" y2="343.951" gradientUnits="userSpaceOnUse">
<stop stop-color="#30CB65"/>
<stop offset="1" stop-color="#30CBB8"/>
</linearGradient>
<clipPath id="clip0_4515_23018">
<rect width="1964" height="356" fill="white"/>
</clipPath>
</defs>
</svg>
