<svg width="40" height="40" viewBox="0 0 40 40" fill="none" xmlns="http://www.w3.org/2000/svg">
<path fill-rule="evenodd" clip-rule="evenodd" d="M15.6645 8.67096C18.3956 7.08409 21.7525 7.11183 24.458 8.74362C27.1368 10.4086 28.765 13.3802 28.7498 16.5768C28.6874 19.7524 26.9416 22.7375 24.7593 25.0451C23.4998 26.383 22.0908 27.566 20.5611 28.57C20.4035 28.6611 20.2309 28.7221 20.0519 28.75C19.8795 28.7427 19.7116 28.6917 19.5634 28.6018C17.228 27.0932 15.1792 25.1675 13.5154 22.9175C12.1232 21.0392 11.3323 18.77 11.25 16.418C11.2482 13.2153 12.9335 10.2578 15.6645 8.67096ZM17.2427 17.7435C17.7021 18.876 18.7865 19.6148 19.9895 19.6148C20.7776 19.6205 21.5352 19.3048 22.0935 18.7381C22.6518 18.1714 22.9644 17.4008 22.9616 16.598C22.9658 15.3725 22.2443 14.2654 21.1341 13.7935C20.0238 13.3215 18.7438 13.5779 17.8916 14.4429C17.0395 15.3079 16.7833 16.6109 17.2427 17.7435Z" fill="#30CB65"/>
<ellipse cx="20" cy="31.25" rx="6.25" ry="1.25" fill="#00404F"/>
</svg>
