<svg width="38" height="56" viewBox="0 0 38 56" fill="none" xmlns="http://www.w3.org/2000/svg">
<path d="M9.50002 55.9997C14.744 55.9997 19 51.8183 19 46.6663V37.333H9.50002C4.25601 37.333 0 41.5143 0 46.6663C0 51.8183 4.25601 55.9997 9.50002 55.9997Z" fill="#0ACF83"/>
<path d="M0 28.0003C0 22.8483 4.25601 18.667 9.50002 18.667H19V37.3337H9.50002C4.25601 37.3337 0 33.1523 0 28.0003Z" fill="#A259FF"/>
<path d="M0 9.33333C0 4.18133 4.25601 0 9.50002 0H19V18.6667H9.50002C4.25601 18.6667 0 14.4853 0 9.33333Z" fill="#F24E1E"/>
<path d="M19 0H28.5C33.744 0 38 4.18133 38 9.33333C38 14.4853 33.744 18.6667 28.5 18.6667H19V0Z" fill="#FF7262"/>
<path d="M38 28.0003C38 33.1523 33.744 37.3337 28.5 37.3337C23.256 37.3337 19 33.1523 19 28.0003C19 22.8483 23.256 18.667 28.5 18.667C33.744 18.667 38 22.8483 38 28.0003Z" fill="#1ABCFE"/>
</svg>
