<svg width="40" height="40" viewBox="0 0 40 40" fill="none" xmlns="http://www.w3.org/2000/svg">
<path fill-rule="evenodd" clip-rule="evenodd" d="M14.0265 15.4783H25.9735C29.3016 15.4783 32 18.1171 32 21.3719V28.3416C32 31.5963 29.3016 34.2352 25.9735 34.2352H14.0265C10.6984 34.2352 8 31.5963 8 28.3416V21.3719C8 18.1171 10.6984 15.4783 14.0265 15.4783ZM19.9932 27.6416C20.6962 27.6416 21.2557 27.0945 21.2557 26.407V23.2926C21.2557 22.6192 20.6962 22.072 19.9932 22.072C19.3047 22.072 18.7452 22.6192 18.7452 23.2926V26.407C18.7452 27.0945 19.3047 27.6416 19.9932 27.6416Z" fill="#30CB65"/>
<path fill-rule="evenodd" clip-rule="evenodd" d="M20.0011 21.9186C20.7028 21.9186 21.2716 22.4874 21.2716 23.1892V26.5245C21.2716 27.2262 20.7028 27.795 20.0011 27.795C19.2993 27.795 18.7305 27.2262 18.7305 26.5245V23.1892C18.7305 22.4874 19.2993 21.9186 20.0011 21.9186Z" fill="white"/>
<path d="M27.7928 13.6178V15.6941C27.2907 15.5538 26.7599 15.4837 26.2148 15.4837H25.2823V13.6178C25.2823 10.7699 22.9153 8.4551 20.0032 8.4551C17.091 8.4551 14.724 10.7559 14.7097 13.5898V15.4837H13.7916C13.2321 15.4837 12.7013 15.5538 12.1992 15.7082V13.6178C12.2136 9.40908 15.6995 6 19.9745 6C24.3068 6 27.7928 9.40908 27.7928 13.6178" fill="#002D33"/>
</svg>
