<svg width="252" height="36" viewBox="0 0 252 36" fill="none" xmlns="http://www.w3.org/2000/svg">
<circle cx="17.724" cy="18" r="17.724" fill="#30CB65"/>
<path d="M16.5374 7.4679C16.9236 6.4243 18.3996 6.4243 18.7858 7.4679V7.4679C20.4046 11.8426 23.8538 15.2919 28.2285 16.9107V16.9107C29.2721 17.2968 29.2721 18.7729 28.2285 19.159V19.159C23.8538 20.7778 20.4046 24.2271 18.7858 28.6018V28.6018C18.3996 29.6454 16.9236 29.6454 16.5374 28.6018V28.6018C14.9186 24.2271 11.4694 20.7778 7.09464 19.159V19.159C6.05104 18.7729 6.05104 17.2968 7.09465 16.9107V16.9107C11.4694 15.2919 14.9186 11.8426 16.5374 7.4679V7.4679Z" fill="white"/>
<path d="M46.416 30.652H61.776V26.236H51.408V7.32398H46.416V30.652ZM71.4568 30.94C76.8648 30.94 80.0328 27.388 80.0328 22.076C80.0328 16.508 76.5768 13.18 71.4568 13.18C66.0168 13.18 62.8488 16.764 62.8488 22.076C62.8488 27.644 66.3048 30.94 71.4568 30.94ZM71.4248 27.132C69.0888 27.132 67.5848 25.468 67.5848 22.076C67.5848 18.652 69.1208 17.02 71.4568 17.02C73.7928 17.02 75.2648 18.684 75.2648 22.076C75.2648 25.5 73.7288 27.132 71.4248 27.132ZM90.8295 30.94C95.3415 30.94 98.6055 28.348 98.7975 24.316H94.2215C94.0295 25.98 92.8135 27.1 90.8295 27.1C88.5895 27.1 87.0855 25.436 87.0855 22.076C87.0855 19.004 88.3655 17.02 90.8615 17.02C92.5575 17.02 93.8695 17.948 94.1575 19.74H98.7655C98.5735 15.868 95.4055 13.18 90.9895 13.18C85.7095 13.18 82.3175 16.7 82.3175 22.076C82.3175 27.42 85.6775 30.94 90.8295 30.94ZM107.509 30.94C110.165 30.94 112.149 29.628 112.949 27.644H113.205V30.652H117.909V13.5H113.397L113.205 16.476H112.949C112.149 14.492 110.165 13.18 107.509 13.18C103.413 13.18 100.661 16.156 100.661 22.076C100.661 27.964 103.413 30.94 107.509 30.94ZM109.301 27.132C106.997 27.132 105.461 25.532 105.461 22.076C105.461 18.588 106.997 16.988 109.301 16.988C111.925 16.988 113.141 19.036 113.141 21.244V22.876C113.141 25.084 111.925 27.132 109.301 27.132ZM121.935 30.652H126.639V7.32398H121.935V30.652ZM131.901 30.652H136.605V17.276H140.093V13.5H136.605V11.964C136.605 11.1 136.989 10.492 138.301 10.492H140.381V7.32398H136.925C133.725 7.32398 131.901 8.85998 131.901 11.676V13.5H129.085V17.276H131.901V30.652ZM142.56 11.292H147.264V7.32398H142.56V11.292ZM142.56 30.652H147.264V13.5H142.56V30.652ZM151.31 30.652H156.014V21.116C156.014 18.94 157.358 17.02 159.79 17.02C162.062 17.02 163.022 18.428 163.022 21.308V30.652H167.726V20.284C167.726 15.132 165.102 13.18 161.678 13.18C159.246 13.18 157.134 14.332 156.206 16.604H156.014L155.822 13.5H151.31V30.652ZM177.416 30.94C180.072 30.94 182.056 29.628 182.856 27.644H183.112L183.272 30.652H187.816V7.32398H183.112V16.476H182.856C182.056 14.492 180.072 13.18 177.416 13.18C173.32 13.18 170.568 16.156 170.568 22.076C170.568 27.964 173.32 30.94 177.416 30.94ZM179.208 27.132C176.904 27.132 175.368 25.532 175.368 22.076C175.368 18.588 176.904 16.988 179.208 16.988C181.832 16.988 183.048 19.036 183.048 21.244V22.876C183.048 25.084 181.832 27.132 179.208 27.132ZM199.362 30.94C203.682 30.94 206.85 28.668 207.298 25.212H202.85C202.498 26.524 201.154 27.388 199.362 27.388C196.994 27.388 195.426 25.852 195.458 23.132H207.394C207.97 17.436 205.154 13.18 199.202 13.18C194.114 13.18 190.818 16.668 190.818 22.204C190.818 27.452 193.986 30.94 199.362 30.94ZM199.202 16.732C201.154 16.732 202.658 17.852 202.786 20.124H195.49C195.682 18.044 197.058 16.732 199.202 16.732ZM210.467 30.652H215.171V21.692C215.235 19.132 216.547 17.692 219.715 17.692H220.771V13.276H219.811C217.635 13.276 215.843 14.044 215.075 16.252H214.915L214.723 13.5H210.467V30.652ZM228.012 30.652H233.804L239.692 21.724H239.82L245.676 30.652H251.596L243.084 18.14L250.572 7.32398H244.716L239.82 14.94H239.692L234.796 7.32398H228.94L236.524 18.172L228.012 30.652Z" fill="#002D33"/>
</svg>
