<svg width="40" height="40" viewBox="0 0 40 40" fill="none" xmlns="http://www.w3.org/2000/svg">
<path d="M25.425 7.49976H14.5875C10.35 7.49976 7.5 10.4748 7.5 14.8998V25.1123C7.5 29.5248 10.35 32.4998 14.5875 32.4998H25.425C29.6625 32.4998 32.5 29.5248 32.5 25.1123V14.8998C32.5 10.4748 29.6625 7.49976 25.425 7.49976" fill="#30CB65"/>
<path d="M23.7684 22.2129L21.5447 19.9904L23.7672 17.7679C24.1947 17.3416 24.1947 16.6479 23.7672 16.2216C23.3397 15.7916 22.6484 15.7929 22.2209 16.2204L19.9972 18.4429L17.7734 16.2179C17.3459 15.7904 16.6534 15.7929 16.2259 16.2179C15.7997 16.6454 15.7997 17.3391 16.2259 17.7654L18.4509 19.9904L16.2309 22.2091C15.8034 22.6366 15.8034 23.3304 16.2309 23.7554C16.4447 23.9704 16.7234 24.0766 17.0034 24.0766C17.2847 24.0766 17.5634 23.9704 17.7772 23.7566L19.9972 21.5366L22.2222 23.7604C22.4359 23.9741 22.7147 24.0804 22.9947 24.0804C23.2747 24.0804 23.5547 23.9729 23.7684 23.7604C24.1959 23.3329 24.1959 22.6404 23.7684 22.2129" fill="white"/>
</svg>
