<svg width="40" height="40" viewBox="0 0 40 40" fill="none" xmlns="http://www.w3.org/2000/svg">
<rect x="7" y="7" width="26" height="26" rx="5" fill="#30CB65"/>
<path d="M19.1346 12.8167C19.5203 12.1545 20.4771 12.1545 20.8628 12.8167L22.5787 15.7627C22.72 16.0053 22.9568 16.1773 23.2312 16.2367L26.5632 16.9583C27.3122 17.1205 27.6079 18.0304 27.0972 18.6019L24.8257 21.1442C24.6386 21.3535 24.5482 21.6319 24.5765 21.9112L24.9199 25.3031C24.9971 26.0656 24.2231 26.628 23.5217 26.3189L20.4019 24.9442C20.145 24.8309 19.8524 24.8309 19.5954 24.9442L16.4757 26.3189C15.7743 26.628 15.0003 26.0656 15.0775 25.3031L15.4209 21.9112C15.4492 21.6319 15.3588 21.3535 15.1717 21.1442L12.9002 18.6019C12.3895 18.0304 12.6852 17.1205 13.4342 16.9583L16.7662 16.2367C17.0406 16.1773 17.2774 16.0053 17.4187 15.7627L19.1346 12.8167Z" fill="white"/>
</svg>
