<svg width="40" height="40" viewBox="0 0 40 40" fill="none" xmlns="http://www.w3.org/2000/svg">
<path d="M19.7201 32.2968C16.8663 30.5341 14.2134 28.4557 11.81 26.0995C10.1132 24.4172 8.81743 22.3631 8.02156 20.0941C6.59952 15.669 8.25486 10.6118 12.8765 9.1105C15.3159 8.34441 17.9689 8.81469 20.0089 10.3748C22.0497 8.81644 24.7018 8.34631 27.1413 9.1105C31.763 10.6118 33.4294 15.669 32.0074 20.0941C31.218 22.3609 29.9299 24.4149 28.2412 26.0995C25.8356 28.4531 23.183 30.5313 20.3311 32.2968L20.02 32.5L19.7201 32.2968Z" fill="#30CB65"/>
<path d="M20.0136 32.5L19.72 32.2968C16.8627 30.5343 14.2061 28.4558 11.7988 26.0995C10.094 24.4195 8.79048 22.3652 7.98815 20.0941C6.57722 15.669 8.23256 10.6118 12.8542 9.11049C15.2936 8.34441 17.9816 8.81505 20.0136 10.3882V32.5Z" fill="#00404F"/>
<path d="M27.7881 17.499V17.499C27.537 17.4829 27.3031 17.3574 27.1413 17.152C26.9795 16.9465 26.904 16.6793 26.9324 16.4127V16.4127C26.9596 15.5348 26.46 14.7356 25.6897 14.4247C25.2012 14.2914 24.9053 13.7623 25.0275 13.2406C25.1435 12.7273 25.6242 12.4081 26.1073 12.5236C26.1683 12.5337 26.227 12.5558 26.2805 12.5888C27.8251 13.1832 28.8252 14.783 28.7456 16.5322C28.7431 16.7973 28.6397 17.05 28.4592 17.2323C28.2786 17.4145 28.0364 17.5108 27.7881 17.499Z" fill="#00404F"/>
</svg>
