<svg width="40" height="40" viewBox="0 0 40 40" fill="none" xmlns="http://www.w3.org/2000/svg">
<path d="M29.9904 28.6915H22.8726C22.1781 28.6915 21.6133 29.2653 21.6133 29.9707C21.6133 30.6775 22.1781 31.25 22.8726 31.25H29.9904C30.6849 31.25 31.2497 30.6775 31.2497 29.9707C31.2497 29.2653 30.6849 28.6915 29.9904 28.6915" fill="#002D33"/>
<path d="M17.8863 13.6295L24.6311 19.0796C24.7938 19.21 24.8216 19.4491 24.6946 19.6158L16.6984 30.0349C16.1958 30.6786 15.455 31.0427 14.6614 31.0562L10.2962 31.1099C10.0634 31.1126 9.85968 30.9514 9.80677 30.7202L8.81469 26.4069C8.64273 25.6141 8.81469 24.7944 9.31735 24.1629L17.3532 13.694C17.4828 13.526 17.7223 13.4965 17.8863 13.6295Z" fill="#30CB65"/>
<path d="M27.6506 15.8318L26.3503 17.455C26.2194 17.6203 25.9839 17.6472 25.8212 17.5155C24.2405 16.2363 20.1928 12.9536 19.0698 12.0439C18.9058 11.9095 18.8833 11.6703 19.0155 11.5037L20.2695 9.94632C21.4071 8.48167 23.3913 8.3473 24.9918 9.62383L26.8305 11.0885C27.5845 11.6797 28.0871 12.4591 28.2591 13.2787C28.4575 14.1804 28.2459 15.0659 27.6506 15.8318" fill="#002D33"/>
</svg>
