<svg width="40" height="40" viewBox="0 0 40 40" fill="none" xmlns="http://www.w3.org/2000/svg">
<path d="M23.0248 11.8624C22.4297 11.7525 21.8832 12.1323 21.7699 12.7131C21.6567 13.294 22.0376 13.8611 22.6165 13.9747C24.3593 14.3145 25.705 15.6636 26.0461 17.4124V17.4136C26.1432 17.917 26.5864 18.283 27.0968 18.283C27.1652 18.283 27.2337 18.2768 27.3034 18.2643C27.8823 18.1481 28.2632 17.5823 28.1499 17.0002C27.6408 14.3882 25.6303 12.3708 23.0248 11.8624" fill="#EEF6F9"/>
<path d="M22.9458 7.50991C22.6669 7.46994 22.3868 7.55238 22.164 7.72976C21.9349 7.90964 21.7918 8.16946 21.7607 8.46051C21.6947 9.04886 22.1192 9.58099 22.7068 9.64719C26.7588 10.0994 29.9084 13.256 30.364 17.3207C30.425 17.8653 30.8819 18.2763 31.4271 18.2763C31.4682 18.2763 31.5081 18.2738 31.5491 18.2688C31.8342 18.2375 32.0882 18.0964 32.2674 17.8715C32.4454 17.6467 32.5264 17.3669 32.494 17.0808C31.9263 12.0093 28.0012 8.07328 22.9458 7.50991" fill="#EEF6F9"/>
<path fill-rule="evenodd" clip-rule="evenodd" d="M18.7897 21.2155C23.776 26.2005 24.9072 20.4334 28.0821 23.606C31.1428 26.6659 32.902 27.279 29.024 31.1559C28.5383 31.5463 25.452 36.2428 14.6058 25.3996C3.75815 14.555 8.45198 11.4656 8.84246 10.9799C12.7298 7.09231 13.3323 8.86173 16.3931 11.9217C19.568 15.0956 13.8033 16.2305 18.7897 21.2155Z" fill="#30CB65"/>
</svg>
