<svg width="64" height="64" viewBox="0 0 64 64" fill="none" xmlns="http://www.w3.org/2000/svg">
<circle cx="32" cy="32" r="32" fill="#002D33"/>
<path d="M37.4335 18.6666H41.9481C43.8178 18.6666 45.3328 20.1944 45.3328 22.0799V26.6327C45.3328 28.5181 43.8178 30.0459 41.9481 30.0459H37.4335C35.5638 30.0459 34.0488 28.5181 34.0488 26.6327V22.0799C34.0488 20.1944 35.5638 18.6666 37.4335 18.6666" fill="#30CB65"/>
<path d="M22.0507 18.6666H26.5653C28.435 18.6666 29.95 20.1944 29.95 22.0799V26.6327C29.95 28.5181 28.435 30.0459 26.5653 30.0459H22.0507C20.181 30.0459 18.666 28.5181 18.666 26.6327V22.0799C18.666 20.1944 20.181 18.6666 22.0507 18.6666" fill="#30CB65"/>
<path d="M22.0507 33.954H26.5653C28.435 33.954 29.95 35.4818 29.95 37.3673V41.92C29.95 43.8042 28.435 45.3333 26.5653 45.3333H22.0507C20.181 45.3333 18.666 43.8042 18.666 41.92V37.3673C18.666 35.4818 20.181 33.954 22.0507 33.954" fill="#30CB65"/>
<path d="M37.4335 33.954H41.9481C43.8178 33.954 45.3328 35.4818 45.3328 37.3673V41.92C45.3328 43.8042 43.8178 45.3333 41.9481 45.3333H37.4335C35.5638 45.3333 34.0488 43.8042 34.0488 41.92V37.3673C34.0488 35.4818 35.5638 33.954 37.4335 33.954" fill="white"/>
</svg>
