<svg width="40" height="40" viewBox="0 0 40 40" fill="none" xmlns="http://www.w3.org/2000/svg">
<path d="M32.5 20.006C32.5 26.8922 26.8895 32.5 20 32.5C13.1105 32.5 7.5 26.8922 7.5 20.006C7.5 13.1078 13.1105 7.5 20 7.5C26.8895 7.5 32.5 13.1078 32.5 20.006" fill="#30CB65"/>
<path d="M25 20.0061C25 20.322 24.9006 20.6391 24.7017 20.8931C24.6644 20.9429 24.4904 21.1482 24.3537 21.2819L24.2791 21.3548C23.2351 22.4617 20.6374 24.1264 19.32 24.6598C19.32 24.6719 18.5369 24.9891 18.1641 25H18.1143C17.5426 25 17.0082 24.6853 16.7347 24.175C16.5856 23.8943 16.4489 23.0802 16.4364 23.0693C16.3246 22.339 16.25 21.2211 16.25 19.9939C16.25 18.7072 16.3246 17.5395 16.4613 16.8226C16.4613 16.8104 16.598 16.1543 16.685 15.9356C16.8217 15.6209 17.0703 15.3524 17.381 15.1823C17.6296 15.062 17.8906 15 18.1641 15C18.4499 15.0134 18.9844 15.1944 19.1957 15.2795C20.5877 15.8141 23.2475 17.5638 24.2667 18.633C24.4407 18.8032 24.6271 19.0109 24.6768 19.0583C24.8881 19.3256 25 19.6537 25 20.0061" fill="#00404F"/>
</svg>
