<svg width="40" height="40" viewBox="0 0 40 40" fill="none" xmlns="http://www.w3.org/2000/svg">
<path fill-rule="evenodd" clip-rule="evenodd" d="M32.8747 26.6769L31.7641 17.7291C31.0875 14.5362 29.1726 13.2223 27.3471 13.2223H12.6791C10.8281 13.2223 8.84939 14.4442 8.27492 17.7291L7.15153 26.6769C6.23239 33.2465 9.61534 34.889 14.0323 34.889H26.0067C30.4109 34.889 33.6917 32.5107 32.8747 26.6769ZM15.8103 20.659C15.1053 20.659 14.5338 20.0708 14.5338 19.3451C14.5338 18.6195 15.1053 18.0312 15.8103 18.0312C16.5154 18.0312 17.0869 18.6195 17.0869 19.3451C17.0869 20.0708 16.5154 20.659 15.8103 20.659ZM22.8945 19.3451C22.8945 20.0708 23.4661 20.659 24.1711 20.659C24.8762 20.659 25.4477 20.0708 25.4477 19.3451C25.4477 18.6195 24.8762 18.0312 24.1711 18.0312C23.4661 18.0312 22.8945 18.6195 22.8945 19.3451Z" fill="#30CB65"/>
<path d="M27.184 12.8962C27.1886 13.0083 27.167 13.1198 27.1211 13.2222H25.0453C25.0051 13.1181 24.9838 13.0078 24.9824 12.8962C24.9824 10.1265 22.7294 7.88122 19.9501 7.88122C17.1708 7.88122 14.9178 10.1265 14.9178 12.8962C14.9368 13.0041 14.9368 13.1144 14.9178 13.2222H12.7916C12.7726 13.1144 12.7726 13.0041 12.7916 12.8962C12.9532 9.04187 16.1357 6 20.0067 6C23.8777 6 27.0602 9.04187 27.2218 12.8962H27.184Z" fill="white"/>
</svg>
