<svg width="40" height="40" viewBox="0 0 40 40" fill="none" xmlns="http://www.w3.org/2000/svg">
<path d="M18.7605 8.3496C19.1863 7.19899 20.8137 7.19899 21.2395 8.3496V8.3496C23.0242 13.1729 26.8271 16.9758 31.6504 18.7605V18.7605C32.801 19.1863 32.801 20.8137 31.6504 21.2395V21.2395C26.8271 23.0242 23.0242 26.8271 21.2395 31.6504V31.6504C20.8137 32.801 19.1863 32.801 18.7605 31.6504V31.6504C16.9758 26.8271 13.1729 23.0242 8.3496 21.2395V21.2395C7.19899 20.8137 7.19899 19.1863 8.3496 18.7605V18.7605C13.1729 16.9758 16.9758 13.1729 18.7605 8.3496V8.3496Z" fill="#30CB65"/>
</svg>
