<svg width="40" height="40" viewBox="0 0 40 40" fill="none" xmlns="http://www.w3.org/2000/svg">
<path d="M19.9356 23.1749C15.6231 23.1749 11.9844 23.8796 11.9844 26.5993C11.9844 29.3201 15.6466 30 19.9356 30C24.248 30 27.8867 29.2953 27.8867 26.5757C27.8867 23.8548 24.2245 23.1749 19.9356 23.1749" fill="#002D33"/>
<path d="M19.9374 20.5838C22.8575 20.5838 25.199 18.2288 25.199 15.2919C25.199 12.3538 22.8575 10 19.9374 10C17.0173 10 14.6758 12.3538 14.6758 15.2919C14.6758 18.2288 17.0173 20.5838 19.9374 20.5838" fill="#30CB65"/>
<path d="M31.3597 16.524C32.1152 13.5522 29.9002 10.8832 27.0797 10.8832C26.773 10.8832 26.4798 10.9169 26.1932 10.9744C26.1552 10.9834 26.1127 11.0025 26.0903 11.0363C26.0645 11.079 26.0836 11.1365 26.1115 11.1736C26.9588 12.3691 27.4457 13.8246 27.4457 15.3871C27.4457 16.8843 26.9991 18.2801 26.2156 19.4385C26.135 19.5578 26.2067 19.7188 26.3488 19.7435C26.5458 19.7784 26.7473 19.7964 26.9532 19.8021C29.007 19.8561 30.8505 18.5266 31.3597 16.524" fill="#30CB65"/>
<path d="M33.5127 23.5212C33.1367 22.7152 32.229 22.1625 30.8489 21.8912C30.1975 21.7313 28.4347 21.5062 26.795 21.5366C26.7704 21.54 26.7569 21.5569 26.7547 21.5681C26.7513 21.5839 26.758 21.6109 26.7905 21.6278C27.5482 22.0049 30.4773 23.645 30.1091 27.1043C30.0934 27.254 30.2132 27.3835 30.362 27.3609C31.0828 27.2574 32.9374 26.8566 33.5127 25.6082C33.8306 24.9486 33.8306 24.182 33.5127 23.5212" fill="#002D33"/>
<path d="M13.8073 10.9747C13.5219 10.9162 13.2275 10.8835 12.9209 10.8835C10.1004 10.8835 7.88535 13.5526 8.64197 16.5244C9.15011 18.527 10.9935 19.8565 13.0473 19.8024C13.2533 19.7968 13.4559 19.7777 13.6517 19.7439C13.7939 19.7191 13.8655 19.5582 13.7849 19.4388C13.0015 18.2794 12.5549 16.8846 12.5549 15.3875C12.5549 13.8239 13.0429 12.3683 13.8901 11.174C13.917 11.1368 13.9372 11.0794 13.9103 11.0366C13.8879 11.0017 13.8465 10.9837 13.8073 10.9747" fill="#30CB65"/>
<path d="M9.15194 21.8909C7.7719 22.1622 6.86531 22.7149 6.48924 23.5209C6.17025 24.1817 6.17025 24.9483 6.48924 25.609C7.06454 26.8563 8.91914 27.2582 9.63994 27.3606C9.7888 27.3831 9.90744 27.2548 9.89177 27.104C9.52354 23.6458 12.4526 22.0057 13.2115 21.6286C13.2428 21.6106 13.2495 21.5847 13.2462 21.5678C13.2439 21.5565 13.2316 21.5397 13.207 21.5374C11.5662 21.5059 9.80447 21.731 9.15194 21.8909" fill="#002D33"/>
</svg>
