<svg width="40" height="40" viewBox="0 0 40 40" fill="none" xmlns="http://www.w3.org/2000/svg">
<path d="M32.5 19.9999C32.5 26.9036 26.9037 32.4999 20 32.4999C13.0963 32.4999 7.5 26.9036 7.5 19.9999C7.5 13.0974 13.0963 7.49988 20 7.49988C26.9037 7.49988 32.5 13.0974 32.5 19.9999" fill="#30CB65"/>
<path d="M24.8254 15.8811L22.8004 22.2811C22.7254 22.5436 22.5129 22.7561 22.2504 22.8324L15.8754 24.8311C15.4504 24.9699 15.0379 24.5561 15.1754 24.1311L17.1754 17.7186C17.2504 17.4561 17.4629 17.2561 17.7254 17.1686L24.1254 15.1686C24.5629 15.0311 24.9629 15.4436 24.8254 15.8811" fill="#00404F"/>
</svg>
